{"glyphs":{":":{"x_min":0,"x_max":181,"ha":181,"o":"m 162 325 q 122 301 89 246 q 63 286 59 290 q 43 309 15 322 q 68 357 93 398 q 116 347 162 325 z m 162 65 q 122 41 89 -14 q 63 26 59 30 q 43 49 15 62 q 68 97 93 138 q 116 87 162 65 z"},"$":{"x_min":0,"x_max":499,"ha":499,"o":"m 248 0 q 245 -1 223 0 l 223 89 q 167 142 96 142 q 71 142 40 119 q 8 96 8 96 q 4 96 -1 105 l 153 281 q 149 289 137 296 q 88 324 74 324 q 64 324 44 307 q 23 290 21 290 q 17 290 9 297 l 9 304 q 12 308 22 314 q 60 332 66 356 q 68 364 68 447 q 68 446 70 464 q 68 484 67 485 q 60 493 29 491 q 5 489 1 491 q 1 493 -1 496 q -3 500 -3 501 q -4 505 1 508 q 31 509 60 512 q 88 515 112 525 q 130 532 213 589 l 213 677 l 238 677 l 238 593 q 288 548 354 548 q 381 548 399 561 q 410 569 433 595 l 447 595 q 449 593 449 588 l 305 427 q 310 416 353 400 q 355 399 370 391 q 379 386 390 386 q 406 386 442 413 l 453 413 q 456 413 456 408 q 456 403 429 387 q 402 371 398 351 q 395 345 395 342 l 395 220 q 395 217 402 210 q 408 204 411 203 q 437 201 463 193 q 460 180 457 180 q 456 180 440 181 q 425 182 423 182 q 364 182 324 154 q 306 141 248 86 z m 349 502 q 318 493 287 493 q 255 493 226 505 q 214 510 201 522 q 194 529 186 536 q 164 536 164 481 l 164 391 q 208 361 218 361 q 228 361 290 433 z m 305 210 l 305 283 q 305 318 297 324 q 261 342 242 351 l 112 203 l 119 203 q 140 211 167 211 q 195 211 248 187 q 300 163 293 163 q 305 163 305 210 z"},"?":{"x_min":0,"x_max":414,"ha":414,"o":"m 222 65 q 182 41 149 -14 q 123 26 119 30 q 103 49 75 62 q 128 97 153 138 q 176 87 222 65 z m 136 177 l 122 281 q 148 286 249 337 l 250 528 q 250 541 243 552 q 236 564 226 564 q 256 564 195 544 q 134 523 109 523 q 77 523 44 548 q 10 574 5 604 q 44 604 60 605 q 88 607 116 632 q 143 656 142 656 q 145 656 147 654 q 231 570 361 570 l 364 561 q 346 562 342 533 l 342 500 q 339 476 342 328 q 342 324 357 287 q 351 279 352 279 q 336 294 317 297 l 282 297 q 249 297 209 275 q 169 253 170 253 l 170 180 z"},"<":{"x_min":0,"x_max":409,"ha":409,"o":"m 37 297 q 37 297 41 300 q 45 304 47 306 q 118 366 313 515 l 343 487 l 100 297 l 340 118 l 310 91 z"},"'":{"x_min":0,"x_max":170,"ha":170,"o":"m 91 403 l 75 403 l 54 522 q 40 601 40 636 q 40 685 83 685 q 125 685 125 637 q 125 608 111 522 q 106 494 91 403 z"},"=":{"x_min":0,"x_max":426,"ha":426,"o":"m 5 343 q 18 345 98 345 q 191 345 377 343 l 377 304 l 5 304 z m 5 243 q 18 245 98 245 q 191 245 377 243 l 377 204 l 5 204 z"},"a":{"x_min":0,"x_max":399,"ha":399,"o":"m 387 91 q 367 77 326 46 q 285 15 273 -10 l 237 41 q 217 61 178 60 q 109 58 82 -6 q 72 18 48 42 q 23 67 -1 77 q 13 84 26 92 q 39 100 41 118 l 41 157 q 41 206 36 215 q 30 224 12 235 l 12 248 q 46 229 84 229 q 123 229 166 250 q 210 271 237 301 q 237 325 238 343 q 211 354 175 377 q 129 407 117 414 q 69 392 68 365 q 67 350 80 339 q 94 328 112 328 q 128 328 153 340 l 158 338 l 156 330 q 104 294 63 256 l 55 258 l 60 272 q 13 299 13 327 q 13 362 83 412 q 84 413 186 475 q 289 395 370 377 q 318 343 318 327 l 318 102 q 318 78 338 78 q 365 78 381 102 z m 238 133 l 237 274 q 203 243 155 222 q 125 209 122 183 q 120 170 123 117 q 125 76 173 76 q 208 76 223 88 q 238 100 238 133 z"},"L":{"x_min":0,"x_max":612,"ha":612,"o":"m 594 626 q 594 595 534 551 q 497 525 422 471 q 362 419 362 369 q 362 336 382 312 q 403 287 434 287 q 464 287 484 306 q 504 325 504 355 q 504 378 486 396 q 468 414 445 414 q 429 414 412 398 q 395 383 395 368 q 395 324 443 324 q 459 324 469 355 l 460 373 l 453 358 l 440 351 l 428 366 l 448 386 q 455 385 466 374 q 477 363 477 357 q 477 340 465 328 q 453 316 437 316 q 416 316 402 331 q 389 346 389 367 q 389 375 402 404 l 448 423 l 459 420 l 461 424 q 456 438 450 453 q 450 490 487 490 q 518 490 518 462 q 518 446 496 439 l 479 452 l 491 464 l 505 453 l 508 459 q 508 465 500 474 q 491 482 485 482 q 477 482 468 472 q 459 462 459 454 q 459 441 486 408 q 514 376 514 356 q 514 324 491 302 q 468 279 436 279 q 400 279 377 305 q 354 331 354 369 q 354 405 387 447 q 420 489 420 494 q 420 513 343 564 l 342 94 q 404 54 439 54 q 463 54 486 75 q 508 96 508 120 q 508 145 479 163 q 450 181 424 181 q 404 181 390 170 q 375 158 375 140 q 375 99 416 99 q 423 99 436 109 q 448 119 448 127 l 436 146 l 436 145 q 436 121 421 121 l 405 137 q 406 156 430 156 q 439 156 448 146 q 456 137 456 128 q 456 113 444 102 q 433 91 418 91 q 366 91 366 142 q 366 175 422 215 q 466 246 507 273 q 504 257 504 253 q 504 244 524 233 q 551 218 561 209 q 581 191 581 164 q 581 115 481 51 q 386 -10 329 -10 q 294 -10 233 27 q 172 64 151 64 q 123 64 86 40 q 67 27 27 1 l 22 8 q 94 56 113 72 q 170 120 170 159 l 170 245 q 82 203 82 143 q 82 107 109 107 q 135 107 135 136 l 132 140 l 115 123 l 100 143 q 100 156 118 156 l 143 136 q 143 120 134 108 q 124 95 110 95 q 71 95 71 146 q 71 157 79 176 l 88 197 q 88 218 24 258 q 56 275 92 315 q 90 339 24 376 q 112 422 112 463 q 112 490 88 490 q 95 490 73 485 l 73 478 l 75 478 l 79 480 l 90 473 l 90 462 l 78 455 l 61 475 q 62 482 73 490 q 84 498 91 498 q 102 498 111 488 q 120 478 120 467 q 120 462 115 448 q 110 434 110 430 q 110 406 168 375 q 166 373 131 348 q 104 329 104 316 q 104 301 155 263 l 170 266 q 172 284 172 336 q 172 449 171 462 q 166 520 143 519 q 134 519 119 515 q 99 513 95 513 q 55 513 25 538 q -5 562 -5 602 q -5 630 20 654 q 45 677 73 677 q 146 677 146 619 q 146 593 127 576 q 108 558 83 558 q 66 558 54 572 q 41 585 41 603 q 41 638 74 638 q 86 638 95 628 q 104 617 104 605 q 104 589 73 579 q 86 572 90 572 q 108 572 120 586 q 131 600 131 619 q 131 638 113 651 q 95 664 73 664 q 47 664 28 644 q 10 623 10 596 q 10 565 38 545 q 63 527 95 527 q 155 527 243 584 q 309 626 369 685 l 378 685 q 390 649 439 616 q 488 584 526 584 q 548 584 564 596 q 579 607 579 627 q 579 666 544 666 q 543 666 534 662 q 524 657 522 657 l 520 652 q 555 652 555 633 q 555 609 531 609 q 504 609 504 638 q 504 654 516 666 q 529 679 545 679 q 564 679 579 662 q 594 646 594 626 z m 569 29 q 569 14 558 3 q 548 -8 532 -8 q 516 -8 516 11 q 516 27 530 27 q 541 27 541 18 q 540 5 542 3 q 548 8 563 20 l 563 24 q 563 50 531 50 q 522 50 488 26 q 455 3 441 3 l 566 101 q 567 100 567 99 q 567 84 540 64 q 553 58 561 53 q 569 45 569 29 z m 186 18 q 186 -6 165 -6 q 160 -6 154 -1 q 147 4 147 9 q 147 23 160 23 q 162 23 167 21 q 167 20 168 15 q 170 10 171 7 q 180 12 180 19 q 180 39 149 39 q 126 39 65 3 l 65 4 q 65 15 100 32 q 135 48 149 48 q 186 48 186 18 z m 326 105 l 326 571 l 311 586 l 311 110 z m 299 120 l 299 588 l 284 591 q 258 591 258 524 l 257 225 q 257 208 260 202 q 262 197 278 196 q 294 195 295 190 l 170 106 q 234 119 296 117 z"},"3":{"x_min":0,"x_max":450,"ha":450,"o":"m 228 412 l 234 407 q 303 403 353 360 q 407 314 407 247 q 407 200 399 171 q 382 108 324 44 q 259 -27 200 -27 q 159 -27 117 -3 q 87 14 63 40 q 41 63 39 64 q 36 64 28 60 q 21 55 20 55 l 13 62 q 40 92 96 149 q 152 206 194 206 q 210 206 247 183 q 265 172 273 172 q 276 172 285 174 q 294 177 296 177 l 299 169 q 274 152 190 89 l 185 94 q 198 113 198 118 q 198 135 180 152 q 162 168 145 168 q 115 168 115 135 q 115 98 161 66 q 204 36 241 36 q 292 36 327 71 q 362 106 362 157 q 362 215 305 268 q 248 321 189 321 q 135 321 105 287 q 101 284 90 292 l 296 507 l 127 506 q 92 506 69 468 l 58 470 l 58 479 q 120 538 167 617 l 180 617 q 179 614 179 610 q 179 592 205 592 q 210 592 231 593 q 252 593 268 593 l 331 593 q 376 593 369 592 q 396 593 401 606 l 418 607 q 391 579 228 412 z"},";":{"x_min":0,"x_max":181,"ha":181,"o":"m 162 325 q 122 301 89 246 q 63 286 59 290 q 43 309 15 322 q 68 357 93 398 q 116 347 162 325 z m 162 65 q 116 87 93 138 q 68 97 15 62 q 55 44 78 12 q 50 -34 54 -94 l 68 -94 q 70 -61 102 -6 q 134 48 162 65 z"},"J":{"x_min":0,"x_max":579,"ha":579,"o":"m 566 672 q 519 630 477 601 q 463 591 463 559 l 463 166 q 463 116 519 116 q 525 116 526 115 q 526 114 526 113 q 525 112 465 82 q 455 77 369 31 l 279 -29 q 276 -32 268 -39 l 252 -54 q 232 -73 229 -73 q 227 -73 222 -64 q 218 -55 216 -53 q 199 -26 142 2 q 85 29 52 29 q 2 29 2 -11 q 2 -40 34 -46 l 34 -34 q 33 -29 33 -23 q 33 -5 57 -5 q 65 -5 74 -14 q 83 -22 83 -31 q 83 -44 71 -54 q 59 -64 45 -64 q 29 -64 10 -48 q -8 -31 -8 -16 q -11 -12 -11 -6 q -11 1 -1 17 q 9 33 16 37 l 187 139 l 187 137 q 185 136 180 127 q 172 116 172 105 q 172 84 232 49 q 288 16 311 16 q 368 16 368 102 l 368 122 q 367 131 367 140 l 366 454 q 366 469 358 480 q 352 486 328 489 l 327 490 l 451 583 q 446 588 442 588 q 176 588 98 586 q 98 583 86 577 q 67 567 67 541 q 67 485 146 485 q 169 485 189 498 q 209 511 209 531 q 209 535 205 539 q 205 539 197 547 q 195 545 194 544 q 194 542 194 542 q 187 529 178 529 q 163 529 163 544 q 163 561 181 561 q 195 561 205 551 q 215 541 215 528 q 215 511 188 486 q 175 474 135 448 q 56 397 56 343 q 56 261 149 261 q 173 261 188 275 q 203 289 203 312 q 203 366 159 366 q 123 366 123 336 q 120 327 120 326 q 122 323 124 316 l 126 316 q 131 316 132 319 q 134 336 148 336 q 165 336 165 319 q 165 298 143 298 q 130 298 120 308 q 110 318 110 331 q 110 351 126 364 q 142 377 163 377 q 172 377 190 362 q 208 348 210 340 q 217 313 215 301 q 207 260 163 249 q 160 249 142 247 q 142 247 134 248 q 125 250 120 249 q 132 239 146 220 q 160 202 160 189 q 160 165 144 148 q 128 130 105 130 q 89 130 76 144 q 62 157 62 173 q 62 203 96 203 q 100 203 109 194 l 109 182 q 102 175 96 175 q 90 175 85 183 q 85 183 84 186 q 82 188 80 190 q 70 184 70 174 q 70 139 105 139 q 123 139 136 152 q 149 165 149 183 q 149 213 114 242 q 107 245 91 256 q 42 297 42 348 q 42 365 50 384 q 59 404 71 409 q 6 441 6 496 q 6 519 29 551 q 50 580 72 593 q 167 633 250 702 q 270 672 289 672 z m 342 384 q 341 383 333 377 q 277 333 277 316 q 277 305 303 281 q 324 262 341 251 q 310 238 282 194 q 253 151 253 118 q 253 61 291 61 q 323 61 323 92 q 323 99 313 109 q 309 88 294 88 q 283 88 283 100 q 283 120 308 120 q 317 120 324 110 q 330 100 330 88 q 330 52 289 52 q 267 52 254 76 q 244 95 244 119 q 244 152 272 192 q 246 233 208 250 q 269 284 269 315 q 269 344 207 388 q 295 443 295 489 q 295 522 265 522 q 251 522 251 509 q 275 505 275 493 q 275 475 265 475 q 238 475 238 505 q 238 515 248 522 q 258 530 270 530 q 303 530 303 487 q 303 471 287 445 q 287 430 316 405 q 329 395 342 384 z m 534 71 q 532 70 523 65 q 520 62 514 60 q 506 55 499 40 l 499 37 q 499 24 493 24 q 491 24 484 27 q 476 30 473 30 q 447 30 438 17 q 479 0 479 -28 q 479 -41 468 -52 q 458 -62 445 -62 q 422 -62 422 -40 q 422 -24 433 -24 q 449 -24 449 -33 q 449 -40 445 -49 l 446 -50 q 446 -51 447 -51 q 472 -51 472 -27 q 472 -13 460 -4 q 448 6 433 6 q 411 6 370 -20 q 341 -40 308 -60 l 306 -58 l 306 -48 l 525 78 l 534 77 z"},"V":{"x_min":0,"x_max":650,"ha":650,"o":"m 149 527 q 149 547 142 553 q 136 559 119 559 q 57 559 28 577 q -4 597 -4 629 q -4 666 23 682 q 43 694 67 690 q 80 688 96 672 q 112 657 112 645 q 112 612 78 612 q 67 612 58 622 q 50 631 50 641 q 50 649 58 656 q 67 663 74 663 q 70 663 88 661 q 80 678 53 678 q 34 678 22 664 q 9 649 9 630 q 9 601 40 586 q 65 573 96 575 q 168 579 233 692 q 238 697 242 697 q 245 697 245 695 q 245 692 242 687 l 242 301 q 242 277 243 264 q 244 251 259 242 q 263 239 280 234 q 274 227 227 194 q 177 159 158 142 q 171 141 306 91 q 308 96 306 118 l 209 155 q 220 162 219 163 q 190 163 308 130 l 308 399 q 249 438 251 505 q 252 548 278 576 q 293 592 344 619 q 399 648 431 670 q 433 671 444 682 q 455 693 457 691 q 455 680 495 650 q 544 612 568 576 q 614 506 614 411 q 614 254 449 123 q 379 68 316 23 q 297 10 274 -21 q 228 28 144 60 q 115 71 92 71 q 72 71 52 57 q 33 43 33 24 q 33 14 42 4 q 50 -5 60 -5 q 56 -5 71 -2 q 71 -2 67 4 q 63 11 63 18 q 63 27 72 34 q 80 42 89 42 q 114 42 114 17 q 114 2 98 -8 q 82 -19 65 -19 q 50 -19 35 -5 q 20 9 20 25 q 20 55 53 77 q 71 89 116 117 q 149 146 149 187 z m 341 589 l 319 586 l 319 460 l 341 451 z m 306 579 q 290 577 276 554 q 263 531 263 514 q 263 481 306 462 q 307 462 307 518 q 306 577 306 579 z m 525 335 q 525 397 522 413 q 512 464 477 507 q 442 550 395 574 q 376 583 353 588 q 353 586 353 570 q 352 554 352 539 l 352 490 l 353 449 q 354 448 360 448 q 371 445 381 445 q 405 445 422 458 q 439 472 439 495 q 439 503 428 510 q 416 518 408 518 q 386 518 386 498 q 386 495 389 492 q 396 499 402 499 q 415 499 415 485 q 415 471 402 471 q 377 471 377 496 q 377 526 411 526 q 426 526 438 514 q 449 502 449 489 q 449 464 400 433 q 351 402 351 371 q 351 238 352 125 q 369 122 415 157 q 470 199 471 252 q 471 271 456 288 q 440 306 420 306 q 379 306 379 263 q 379 251 388 241 q 398 231 412 231 l 418 231 q 421 233 428 235 q 431 238 431 243 q 425 242 418 248 q 412 253 412 258 q 412 273 429 273 q 446 273 446 250 q 446 241 434 230 q 422 220 413 220 q 368 220 368 265 q 368 288 386 304 q 405 321 428 317 q 407 340 407 365 q 407 403 443 409 q 459 412 474 402 q 489 391 489 376 q 489 351 469 351 q 453 351 453 365 q 453 379 465 379 l 470 379 q 473 378 476 378 q 476 396 454 399 q 418 405 418 361 q 418 347 451 313 q 484 279 483 247 q 481 201 433 158 q 394 123 352 111 q 350 109 350 97 q 350 85 352 83 q 432 110 478 180 q 525 250 525 335 z m 339 380 l 323 391 l 323 89 q 328 88 339 83 z m 553 188 q 520 145 521 108 l 522 104 q 506 114 492 112 q 472 109 465 94 q 513 86 514 46 q 514 27 502 12 q 489 -2 470 -2 q 434 -3 432 29 q 431 56 452 56 q 468 56 469 40 q 469 30 462 27 q 454 24 446 28 l 441 27 q 443 7 472 7 q 484 7 494 19 q 505 31 505 43 q 504 84 462 84 q 445 84 418 62 q 391 41 391 24 l 391 4 q 372 9 360 8 q 352 5 313 -14 q 309 -15 309 -12 q 314 -3 420 75 q 526 153 548 193 q 550 191 554 191 q 555 190 553 188 z"},"\"":{"x_min":0,"x_max":293,"ha":293,"o":"m 88 417 l 72 417 q 65 456 52 532 q 39 607 39 642 q 39 688 79 688 q 120 688 120 640 q 120 598 107 530 q 103 512 88 417 z m 218 417 l 202 417 q 170 589 170 640 q 170 688 209 688 q 250 688 250 642 q 250 594 218 417 z"},"7":{"x_min":0,"x_max":462,"ha":462,"o":"m 378 605 q 323 540 210 370 l 287 370 q 305 370 316 374 q 328 377 338 391 l 351 391 l 255 276 q 254 276 252 277 q 248 274 246 274 q 244 274 244 276 q 244 279 249 288 q 254 297 254 299 q 254 305 232 305 l 175 305 q 123 233 119 184 q 114 131 159 97 q 199 67 254 67 q 281 67 302 88 q 322 110 322 137 q 322 155 310 168 q 298 182 282 182 q 271 182 260 174 q 287 163 287 146 q 287 120 259 120 q 234 120 234 149 q 234 166 248 180 q 263 195 279 195 q 306 195 322 178 q 338 161 337 132 q 336 90 284 57 q 256 41 200 7 q 189 -11 168 -30 l 168 -27 q 168 -12 138 7 q 94 35 81 48 q 51 77 51 112 q 51 164 93 221 q 115 249 157 305 l 104 305 q 77 305 61 283 q 49 282 48 283 q 61 301 141 400 l 151 400 q 146 388 146 383 q 146 369 164 369 q 185 369 192 370 q 199 380 271 498 q 276 516 249 516 l 142 516 q 92 516 52 443 l 44 443 l 44 450 l 136 619 q 137 618 144 619 q 145 618 148 618 q 144 610 144 602 q 144 590 159 590 l 334 591 q 342 591 350 597 q 359 603 367 609 z"},"S":{"x_min":0,"x_max":614,"ha":614,"o":"m 564 478 q 564 463 554 452 q 543 441 528 441 q 518 441 508 450 q 498 458 498 468 q 498 486 514 486 q 526 486 526 475 q 526 460 508 464 q 519 450 531 450 q 539 450 548 458 q 556 467 556 476 q 556 490 544 500 q 531 510 516 510 q 500 510 460 476 l 454 480 l 557 560 l 564 554 q 553 546 518 518 q 531 515 545 510 q 564 501 564 478 z m 581 289 q 581 229 518 171 q 482 138 388 78 q 299 21 264 -14 l 259 -12 q 245 25 171 59 q 104 90 58 90 q 33 90 16 77 q 0 64 0 41 q 0 24 12 12 q 25 -1 42 -1 q 54 -1 64 8 q 75 16 75 27 l 72 32 q 56 19 47 19 q 23 19 23 42 q 23 52 33 60 q 43 69 53 69 q 68 69 78 58 q 89 48 89 33 q 89 14 74 0 q 60 -13 41 -13 q 17 -13 2 3 q -14 19 -14 46 q -15 102 186 247 q 143 261 60 292 q 89 301 97 322 q 101 333 101 369 q 101 371 102 392 q 103 413 103 422 q 103 514 55 512 l 48 518 q 132 547 195 590 q 215 603 324 689 q 421 597 516 597 q 530 597 542 610 q 555 623 555 637 q 555 652 544 664 q 532 676 517 676 l 501 668 q 523 661 523 648 q 523 642 515 632 q 507 622 501 622 q 490 622 481 631 q 472 640 472 651 q 472 665 486 678 q 501 690 516 690 q 537 690 553 674 q 569 657 569 636 q 569 596 504 547 l 417 481 q 475 463 506 435 q 581 368 581 289 z m 564 172 q 525 144 525 109 l 525 104 q 511 112 497 112 q 491 112 480 106 q 470 101 468 96 q 517 87 517 47 q 517 28 504 14 q 490 -1 472 -1 q 434 -1 434 31 q 434 58 455 58 q 472 58 472 42 q 472 32 464 29 q 456 26 449 30 l 444 29 q 446 8 474 8 q 486 8 497 20 q 508 32 508 44 q 508 86 465 86 q 446 86 420 66 q 394 45 394 26 q 394 4 393 7 q 373 12 363 12 q 354 12 315 -6 q 311 -7 311 -4 l 564 179 l 567 176 z m 422 504 q 422 525 285 576 q 287 554 286 448 q 346 481 346 514 q 346 539 323 539 q 306 539 303 521 l 309 513 q 313 523 321 523 q 333 523 333 512 q 333 497 318 497 q 296 497 296 522 q 296 531 305 539 q 314 547 322 547 q 358 547 353 507 q 349 472 286 438 l 286 411 q 412 496 422 504 z m 273 400 l 273 580 l 255 584 q 256 524 255 388 z m 447 344 q 428 370 369 386 l 369 289 z m 355 315 l 355 388 l 340 390 q 339 335 340 310 z m 245 332 l 245 584 l 231 584 q 193 584 195 526 l 199 380 q 199 367 211 353 q 223 339 237 335 q 244 333 245 332 z m 326 310 l 326 391 q 299 393 287 386 l 287 319 q 310 309 320 309 q 324 309 326 310 z m 486 243 q 486 274 453 334 l 370 274 l 370 100 q 446 115 471 174 q 486 210 486 243 z m 274 381 l 256 369 l 256 330 l 274 323 z m 357 100 l 357 295 l 341 284 l 341 101 z m 330 103 l 330 251 q 260 206 257 181 q 253 145 283 145 q 312 145 312 171 q 312 177 307 179 l 293 171 q 280 171 280 185 q 280 198 299 198 q 306 198 314 188 q 321 178 321 171 q 321 138 281 136 q 263 135 253 150 q 243 165 246 184 q 251 213 328 262 l 327 280 l 215 206 q 215 208 216 216 q 217 225 217 226 q 217 232 201 242 q 165 216 166 190 q 167 164 233 133 q 292 105 322 105 q 329 105 330 103 z m 467 280 q 392 230 390 199 q 387 159 425 159 q 435 159 444 169 q 452 179 452 191 q 452 191 450 199 q 450 199 444 194 q 439 190 435 190 q 422 190 422 201 q 422 218 438 218 q 446 218 454 210 q 463 203 463 195 q 463 178 450 164 q 438 150 422 150 q 379 150 379 193 q 379 198 381 209 q 387 239 464 289 z"},"}":{"x_min":0,"x_max":847,"ha":847,"o":"m 275 595 q 277 595 282 594 q 288 593 289 593 l 329 592 q 325 596 292 606 q 263 614 254 632 l 239 629 l 239 606 q 250 595 275 595 z m 11 279 q 32 294 63 327 l 78 305 l 92 305 q 103 317 122 334 q 125 334 139 332 q 153 329 158 329 l 167 305 q 195 302 217 272 q 221 283 225 310 q 228 333 235 342 l 265 308 l 275 308 q 286 319 291 319 l 356 296 q 391 279 412 257 l 412 242 l 408 237 q 404 237 384 240 q 363 243 357 243 q 293 243 222 200 q 142 152 144 92 l 160 88 q 188 99 213 99 q 222 99 244 77 q 217 63 171 48 q 156 58 122 77 q 111 79 98 58 q 84 37 84 25 q 84 20 88 14 q 91 7 91 4 q 91 -1 88 -11 l 109 -23 l 134 -12 q 154 -27 172 -27 q 178 -27 180 -26 q 204 -2 216 -2 q 216 -2 234 -5 q 253 -8 267 -8 q 281 -8 310 -12 q 340 -15 355 -15 q 379 -15 379 25 q 379 50 363 76 q 347 101 346 110 q 353 123 375 155 q 392 131 397 86 q 402 38 410 24 q 426 -4 482 -15 q 499 -4 516 19 q 530 38 568 51 l 596 35 l 571 24 q 568 16 537 -15 q 563 -32 596 -59 q 628 -31 632 -30 q 643 -25 677 -26 l 677 8 q 678 19 682 44 l 702 52 l 714 75 q 710 81 678 103 q 680 119 673 147 l 706 172 l 706 184 q 671 195 677 195 q 668 195 642 192 q 620 190 607 191 q 593 184 574 166 q 552 143 544 137 l 515 132 q 506 156 504 158 q 504 202 535 224 q 548 233 598 252 q 637 267 649 290 q 670 329 684 341 l 684 353 q 684 355 673 357 q 657 357 636 338 l 603 308 q 587 364 589 395 l 591 432 l 616 459 q 652 439 655 409 q 674 428 674 452 q 674 468 665 489 q 672 496 678 499 q 734 473 734 437 q 734 424 728 404 l 739 404 q 755 404 766 428 q 776 449 776 467 q 776 482 746 533 q 798 582 798 614 q 798 644 778 666 q 757 687 728 687 q 705 687 682 665 q 659 643 608 643 l 593 646 q 581 660 581 694 q 555 685 555 656 q 555 613 592 613 q 603 613 628 624 q 654 635 664 635 q 676 635 687 622 q 698 610 698 597 q 698 580 665 551 l 661 555 l 661 583 q 658 586 647 610 l 630 606 l 639 580 q 629 560 582 514 q 548 481 548 430 q 548 415 558 384 q 568 352 566 337 q 542 353 526 357 l 500 345 l 500 334 q 537 333 537 292 q 537 255 507 238 q 472 285 419 360 l 427 367 q 441 361 476 352 l 493 364 q 475 380 456 404 l 474 415 q 478 419 478 428 l 460 478 l 464 481 l 469 481 q 485 470 489 463 l 499 473 l 511 474 q 521 501 524 540 q 536 548 537 560 q 531 586 524 599 l 534 626 q 526 640 502 672 q 510 706 510 709 q 510 719 496 736 q 483 753 482 761 q 470 749 443 728 l 427 735 q 420 733 416 729 q 358 734 287 684 l 299 621 l 358 599 q 338 573 310 573 q 305 573 295 575 q 288 568 290 562 q 305 544 315 540 q 292 536 238 536 q 181 536 169 566 q 166 574 166 644 q 166 658 154 658 q 151 658 142 656 q 134 654 133 654 l 121 674 l 103 680 q 87 666 52 640 l 60 606 q 83 589 93 559 l 124 540 l 129 522 q 117 499 95 435 q 102 424 114 411 q 115 400 99 394 q 78 386 78 386 l 66 379 q 53 382 4 389 l 2 352 l 4 286 z m 375 696 q 383 696 396 683 q 368 664 360 664 q 350 664 344 674 q 360 696 375 696 z m 728 679 q 742 679 753 664 q 764 648 764 632 q 764 623 751 607 q 738 591 729 588 l 729 597 q 729 623 713 634 q 691 649 684 658 q 687 661 706 670 q 724 679 728 679 z"},"Z":{"x_min":0,"x_max":599,"ha":599,"o":"m 547 454 q 547 421 521 421 q 498 421 498 442 q 498 457 512 457 q 523 457 523 448 q 523 443 510 436 q 511 429 519 429 q 540 429 540 452 q 540 480 512 480 q 497 480 459 445 l 450 449 l 540 524 l 545 519 q 531 507 509 487 q 510 488 516 488 q 529 488 538 478 q 547 467 547 454 z m 547 677 l 397 522 l 471 522 q 487 522 506 536 q 524 550 524 564 q 524 589 501 589 q 497 589 495 586 q 505 573 505 572 q 505 558 490 558 q 476 558 476 573 q 476 597 505 597 q 534 597 534 565 q 534 540 488 504 q 442 468 419 451 l 415 451 q 421 462 421 466 q 421 477 399 477 q 428 476 368 476 q 360 471 329 445 l 337 445 q 422 445 477 410 q 543 368 543 288 q 543 245 525 219 q 487 165 404 98 q 310 22 280 -19 q 267 11 198 46 q 128 82 92 82 q 20 82 20 40 q 20 26 32 14 q 45 1 60 1 q 101 1 101 32 q 101 51 90 51 q 86 51 85 50 q 89 35 89 37 q 89 22 69 22 q 48 22 48 42 q 48 51 58 60 q 67 68 75 68 q 91 68 102 57 q 114 46 114 30 q 114 12 100 0 q 85 -11 66 -11 q 43 -11 25 2 q 7 16 7 38 q 7 69 53 107 q 79 128 135 168 q 178 198 175 209 l 188 209 q 177 184 177 180 q 177 156 222 129 q 261 105 290 102 l 308 100 l 308 118 q 268 123 239 140 q 202 162 202 197 q 202 217 216 232 q 230 247 249 247 q 296 247 296 207 q 296 174 263 174 q 235 174 235 197 q 235 215 252 215 q 267 215 267 202 q 267 194 258 194 q 257 194 246 199 l 243 194 q 245 183 260 183 q 287 183 287 211 q 287 238 251 238 q 233 238 222 225 q 211 212 211 194 q 211 168 247 147 q 279 128 307 128 l 308 128 l 308 311 q 247 312 210 281 l 205 286 q 246 322 308 320 l 308 353 l 300 353 q 226 353 177 316 l 173 322 l 334 476 l 295 476 q 263 476 225 457 q 180 436 180 408 q 180 391 197 391 q 205 391 213 398 q 198 401 198 413 q 198 429 214 429 q 230 429 230 408 q 230 399 218 390 q 207 381 197 381 q 168 381 168 413 q 168 438 192 460 q 206 472 234 497 q 270 532 299 556 l 299 531 q 302 521 320 521 l 371 521 q 407 553 407 559 q 407 577 380 577 l 195 577 q 153 577 133 570 q 101 558 101 523 q 101 488 150 488 q 165 488 180 500 q 194 511 194 524 q 194 540 179 547 q 178 547 175 548 l 171 548 l 169 546 q 176 535 176 529 q 176 511 156 511 q 135 511 135 531 q 135 559 167 559 q 182 559 193 549 q 204 539 204 525 q 204 500 176 482 l 97 417 q 56 444 56 499 q 56 522 67 542 q 69 547 206 684 q 223 666 239 666 l 503 666 l 540 680 z m 422 222 q 422 225 420 233 q 410 215 382 215 q 365 215 363 221 q 402 235 402 256 q 402 272 386 287 q 369 302 349 308 l 349 129 q 379 134 400 162 q 422 189 422 222 z m 349 353 l 349 318 q 383 309 406 282 q 429 256 429 223 q 429 188 406 157 q 384 126 349 121 l 349 99 q 350 100 351 100 l 357 100 q 405 100 438 137 q 472 174 472 222 q 472 270 434 310 q 397 351 349 353 z m 338 353 l 318 353 l 318 99 l 338 99 z m 524 118 q 517 122 511 122 q 474 122 465 101 q 519 94 519 49 q 519 29 504 16 q 490 3 469 3 q 433 3 433 38 q 433 62 454 62 q 472 62 472 47 q 472 34 463 32 l 444 32 q 447 14 470 14 q 485 14 496 25 q 507 36 507 51 q 507 68 494 79 q 482 90 466 90 q 440 90 417 66 q 394 43 394 17 q 394 10 395 7 q 377 9 373 9 q 356 9 336 -4 q 316 -17 314 -17 l 314 -16 q 334 4 421 78 q 531 172 548 206 l 552 202 q 549 196 542 184 q 535 171 531 163 q 527 155 524 118 z"},"x":{"x_min":0,"x_max":375,"ha":375,"o":"m 338 407 l 175 271 l 213 271 q 239 271 262 291 l 270 291 l 222 205 q 221 210 225 226 l 173 227 l 173 110 q 233 73 243 68 q 250 68 266 80 q 282 91 287 99 q 300 118 300 126 q 300 152 277 158 l 265 153 q 265 152 270 146 q 276 140 276 135 q 276 116 258 116 q 233 116 233 140 q 233 169 273 169 q 291 169 302 156 q 312 143 312 126 q 312 91 262 63 q 246 55 216 39 q 205 33 180 11 q 116 62 58 78 q 79 81 97 104 l 97 213 q 96 211 90 204 q 45 156 27 122 q 3 79 1 23 q -1 -26 39 -70 q 79 -115 119 -111 q 146 -111 161 -95 l 181 -74 q 206 -107 252 -122 q 224 -130 178 -173 q 167 -156 119 -138 q 54 -122 21 -77 q 9 -61 -3 -27 q -15 7 -15 23 q -15 25 -12 46 q -11 100 35 164 q 55 186 88 226 q 65 226 55 227 q 27 230 10 215 q 0 206 -1 204 q -1 214 19 251 q 39 288 41 298 l 41 276 q 41 267 55 265 q 56 264 76 265 q 86 265 97 266 q 96 295 96 355 q 88 405 59 405 q 56 405 25 382 l 18 394 q 48 417 107 473 q 139 441 154 432 q 170 423 193 423 q 226 423 273 473 q 297 419 338 407 z m 260 365 q 262 371 262 374 q 262 388 248 399 q 235 410 220 410 q 180 409 175 386 q 175 372 173 343 q 170 323 174 292 q 207 321 260 365 z"},")":{"x_min":0,"x_max":244,"ha":244,"o":"m 186 328 q 186 44 5 -104 l -5 -97 q 112 71 112 325 q 112 507 2 730 l 12 736 q 81 674 134 549 q 186 424 186 328 z"},"&":{"x_min":0,"x_max":568,"ha":568,"o":"m 551 28 q 551 13 537 2 q 523 -9 505 -9 q 462 -9 462 22 q 462 47 488 47 q 493 47 502 40 q 512 34 512 29 q 513 26 509 18 q 505 10 505 9 q 505 6 506 5 l 506 3 l 518 3 q 523 3 530 13 q 537 23 536 28 q 535 56 512 64 q 501 68 470 67 q 412 65 322 3 q 321 3 314 -5 q 306 -13 304 -13 q 308 -13 273 13 q 260 23 240 36 q 240 36 180 66 q 158 77 105 106 q 70 127 36 162 q -5 205 -6 234 q -8 280 10 308 q 21 325 53 346 q 94 373 109 389 q 104 394 84 415 q 75 425 64 425 q 30 425 30 403 l 33 391 l 37 387 q 48 398 51 398 q 63 398 63 385 q 63 369 46 367 q 36 367 28 378 q 19 389 20 403 q 21 430 56 435 q 36 454 28 454 q 27 454 20 453 q 14 452 10 452 q 10 462 6 477 q 4 480 -3 496 q 38 475 120 397 l 141 416 l -4 533 q 0 543 4 543 q 13 543 26 546 q 108 601 163 659 q 166 668 170 677 q 242 624 330 567 q 342 562 351 562 q 378 562 400 583 q 378 605 378 617 q 378 636 391 649 q 404 662 422 662 q 440 662 452 648 q 464 635 464 616 q 464 582 424 561 q 391 543 354 543 q 338 543 328 547 l 306 556 q 305 555 307 546 q 309 538 307 535 l 306 147 q 309 147 338 158 q 366 169 377 169 q 383 169 384 165 q 385 161 383 159 q 350 159 308 135 l 308 106 q 322 112 368 135 q 396 149 416 149 q 425 148 425 149 q 402 172 325 220 q 342 227 343 229 q 350 231 354 247 l 354 342 l 504 342 q 503 341 503 331 q 503 320 504 319 q 503 320 493 320 q 483 321 482 320 q 460 318 447 280 l 447 174 q 447 149 499 101 q 551 53 551 28 z m 263 381 q 163 444 162 501 q 162 520 176 534 q 190 548 206 548 q 247 549 247 510 q 247 482 219 482 q 196 482 195 502 q 194 512 206 514 q 222 514 222 502 q 222 498 219 495 q 222 492 226 492 q 239 492 239 512 q 239 518 225 532 q 211 540 207 540 q 174 540 174 505 q 174 475 206 443 q 213 436 254 402 l 263 396 q 262 532 263 578 q 265 590 226 590 q 194 590 154 549 q 115 508 116 476 q 116 462 121 454 q 131 442 225 374 q 236 368 263 352 q 263 352 263 381 z m 292 102 l 292 563 q 292 573 279 572 l 277 94 q 292 94 292 102 z m 263 90 l 263 185 q 263 225 235 242 q 220 251 206 251 q 179 250 160 230 q 141 210 141 184 q 141 168 156 152 q 171 135 188 135 q 203 135 216 146 q 229 156 229 171 q 229 194 209 199 l 198 200 q 206 179 206 177 q 199 170 191 170 q 176 169 174 190 q 173 209 201 210 q 215 211 226 198 q 238 185 238 173 q 238 151 224 138 q 209 125 189 125 q 153 125 141 150 q 128 165 128 183 q 127 215 149 238 q 171 261 204 261 q 218 261 230 257 q 214 278 190 309 q 189 315 198 315 q 206 317 261 233 l 261 328 q 256 333 246 333 q 186 332 141 293 q 93 252 93 193 q 93 129 154 92 q 191 70 215 71 q 247 73 263 90 z m 246 2 q 244 0 245 -3 q 247 -7 247 -5 q 246 -6 240 -5 q 229 -1 219 5 q 211 7 208 7 q 200 7 188 0 q 183 0 184 1 q 186 8 186 12 q 186 17 184 19 q 179 24 168 34 q 163 39 139 52 q 115 65 110 65 q 72 65 72 42 q 72 30 82 20 q 92 10 104 10 q 109 10 114 15 q 108 23 108 28 q 108 39 119 39 q 132 39 132 23 q 132 14 123 6 q 114 -2 102 -2 q 91 -2 74 12 q 58 25 58 36 q 58 75 95 75 q 86 82 35 117 l 38 127 z"},"_":{"x_min":0,"x_max":584,"ha":584,"o":"m 587 -150 l 0 -150 l 0 -100 l 587 -100 z"},"v":{"x_min":0,"x_max":427,"ha":427,"o":"m 352 92 q 367 91 396 77 l 396 70 q 352 78 339 80 q 308 80 264 47 q 224 16 209 -14 q 123 57 22 69 q 22 71 20 74 q 21 77 39 87 q 57 97 60 110 l 60 359 q 60 403 31 403 q 26 401 -3 385 q -4 386 -6 392 l 95 477 q 129 435 183 402 q 156 393 155 392 q 142 381 142 345 l 142 121 q 211 100 245 66 l 265 74 l 265 354 q 265 390 229 400 l 229 404 q 258 418 280 440 q 282 443 309 478 q 346 434 398 401 q 394 398 371 398 q 349 395 350 343 q 351 317 352 92 z"},"O":{"x_min":0,"x_max":658,"ha":658,"o":"m 613 409 q 613 298 545 216 q 520 186 411 97 q 330 31 317 -21 l 307 -25 q 294 -5 209 29 q 116 66 96 83 q 68 56 68 26 q 68 14 79 5 q 90 -4 103 -4 q 121 -4 128 17 q 130 23 126 26 q 122 30 119 28 q 111 16 101 15 q 86 18 86 32 q 91 55 116 50 q 138 43 139 17 q 139 5 128 -6 q 117 -17 101 -17 q 83 -17 70 -4 q 56 8 56 26 q 56 63 87 91 q 8 167 8 299 q 8 374 57 449 q 103 520 171 559 q 167 559 148 556 q 129 552 123 552 q 93 552 72 571 q 51 590 51 617 q 51 642 68 660 q 84 677 109 677 q 128 677 144 663 q 160 649 160 631 q 160 615 150 602 q 139 589 125 589 q 112 589 102 598 q 93 607 93 620 l 114 643 q 134 643 140 619 l 144 626 q 144 639 134 650 q 124 660 111 660 q 93 660 80 647 q 66 634 66 616 q 66 598 84 584 q 101 569 120 569 q 215 569 312 690 l 312 560 l 314 560 q 349 593 446 688 q 461 650 508 606 q 565 552 579 532 q 613 484 613 409 z m 577 197 q 545 165 545 145 l 545 139 q 546 137 546 134 q 546 130 543 125 q 541 125 533 127 q 525 129 522 129 q 513 129 500 121 q 488 113 487 106 q 512 105 529 88 q 546 71 546 46 q 546 27 534 12 q 522 -2 504 -2 q 489 -2 476 9 q 464 20 464 34 q 464 69 493 69 q 511 69 511 48 q 511 33 496 33 q 495 33 490 38 q 485 43 481 42 l 477 35 q 482 12 502 12 q 531 12 531 45 q 531 63 517 78 q 503 93 485 93 q 465 93 448 76 q 431 58 431 38 q 431 34 433 26 q 430 24 425 26 q 422 27 417 28 q 397 28 349 -17 l 347 -13 q 375 34 454 99 q 547 176 571 203 z m 526 352 q 526 415 492 466 q 459 517 403 549 l 403 281 q 445 316 453 324 q 480 352 480 381 q 480 421 450 421 q 423 421 423 395 q 426 382 426 382 l 432 377 q 434 398 448 398 l 462 385 q 462 362 442 362 q 430 362 421 373 q 412 384 412 397 q 412 412 424 422 q 436 432 451 432 q 493 432 493 376 q 493 344 443 296 q 463 297 476 283 q 489 269 489 248 q 489 233 478 222 q 466 211 452 211 q 443 211 434 217 q 425 223 425 231 q 425 254 442 254 q 458 254 458 240 l 451 226 l 457 225 q 475 225 475 248 q 475 262 465 272 q 455 283 442 283 q 427 283 414 271 q 401 259 401 244 l 401 117 q 469 135 501 211 q 526 270 526 352 z m 385 553 l 370 555 l 370 111 l 385 112 z m 353 557 q 310 557 310 513 l 309 291 q 309 278 325 272 q 341 267 341 267 l 185 151 q 202 137 257 123 q 309 110 336 110 l 355 110 q 354 152 355 237 q 329 216 320 207 q 310 195 310 176 q 310 170 311 163 q 300 173 287 173 q 269 173 240 147 l 231 151 l 355 255 l 355 557 z m 187 562 l 180 557 l 179 538 q 143 525 110 471 q 77 417 77 377 l 77 334 q 77 284 102 237 q 128 190 171 164 q 222 199 222 217 l 221 506 q 221 562 187 562 z m 203 372 q 180 352 156 329 q 132 301 132 271 q 132 260 140 250 q 149 241 160 241 q 188 241 188 257 l 183 262 q 177 259 172 259 q 157 259 157 275 q 157 290 176 290 q 201 290 201 262 q 201 230 164 230 q 120 230 120 279 q 120 293 128 311 q 136 329 145 333 l 102 376 q 169 422 169 453 q 169 479 152 479 q 142 476 143 476 q 152 461 152 460 q 152 447 139 447 q 135 447 130 454 q 126 462 126 466 q 126 490 151 490 q 163 490 172 480 q 180 471 180 459 q 180 434 164 417 q 165 410 184 394 q 203 378 203 372 z"},"(":{"x_min":0,"x_max":241,"ha":241,"o":"m 6 328 q 6 44 187 -104 l 197 -97 q 140 -16 108 105 q 79 215 79 325 q 79 510 190 730 l 180 736 q 111 674 58 549 q 6 424 6 328 z"},"C":{"x_min":0,"x_max":599,"ha":599,"o":"m 590 636 q 589 605 564 585 q 518 547 378 465 l 378 429 q 452 478 559 552 q 560 551 561 547 q 517 518 517 486 q 517 480 518 477 l 492 481 q 479 481 450 464 q 448 463 426 450 q 427 450 434 450 q 458 450 482 427 q 506 404 505 380 q 504 354 488 337 q 471 320 445 320 q 427 320 412 332 q 397 345 397 361 q 397 405 442 403 q 461 402 461 380 q 461 361 441 361 q 430 361 428 373 q 427 385 433 388 q 430 391 426 391 q 406 391 406 362 q 406 334 446 329 q 465 327 480 342 q 496 358 495 379 q 494 405 474 423 q 455 441 430 441 q 411 441 379 417 l 379 245 l 518 329 l 523 321 q 518 318 505 307 l 504 298 q 505 298 508 296 q 510 294 510 293 q 526 285 539 264 q 552 244 552 226 q 552 165 442 102 q 406 76 370 50 q 318 11 314 -7 q 313 -13 308 -21 q 286 16 217 34 q 160 49 137 63 q 132 65 106 85 q 80 105 76 105 q 66 105 53 86 q 42 71 41 64 l 41 52 q 41 15 79 15 q 90 15 100 22 q 109 30 109 41 q 109 45 104 53 q 103 52 96 42 q 89 31 84 31 q 67 31 67 50 q 67 69 89 69 q 119 69 119 41 q 119 25 106 15 q 94 5 79 5 q 59 5 45 20 q 31 34 31 54 q 31 89 67 114 q 56 125 32 157 q 4 207 4 267 q 4 294 9 335 q 16 392 83 459 q 135 511 183 537 q 186 538 205 552 q 198 567 183 567 q 200 567 158 559 q 116 551 107 551 q 101 551 80 558 q 60 565 57 569 q 37 592 37 611 q 37 636 52 652 q 68 669 90 669 q 123 669 136 638 q 139 631 139 627 q 139 617 130 606 q 122 595 112 595 q 81 595 81 622 q 81 635 105 648 q 104 657 87 657 q 70 657 60 644 q 49 632 49 616 q 49 590 70 576 q 88 563 115 563 q 155 563 209 603 q 255 637 284 677 q 286 678 290 685 q 291 687 293 690 q 292 655 293 599 q 334 620 351 633 q 363 642 384 664 q 406 685 408 685 q 409 685 412 682 q 458 591 523 591 q 574 591 574 637 q 574 651 563 661 q 552 671 539 671 q 532 671 518 661 q 522 660 532 658 q 548 654 548 636 q 548 627 540 620 q 533 613 526 613 q 497 613 497 641 q 497 658 511 669 q 525 680 541 680 q 561 680 576 666 q 591 653 590 636 z m 545 52 q 545 31 530 19 q 515 7 496 7 q 461 7 461 43 q 461 54 469 64 q 477 73 487 73 q 509 73 509 56 q 509 52 504 46 q 499 39 494 39 q 487 39 475 55 q 472 51 472 43 q 472 17 498 17 q 512 17 523 28 q 534 38 534 53 q 534 68 522 78 q 511 87 498 87 q 482 87 472 82 q 420 56 420 31 q 420 25 423 19 l 426 13 q 428 11 422 11 q 421 11 408 16 q 395 22 393 22 q 382 22 343 -7 q 339 -7 339 -2 q 339 3 385 35 l 417 57 q 480 100 533 141 q 539 141 542 134 l 494 98 q 545 94 545 52 z m 432 528 q 432 539 415 555 q 398 571 380 578 l 381 483 q 432 503 432 528 z m 369 475 l 369 588 l 351 596 l 351 463 z m 338 453 l 338 600 l 326 598 q 321 599 293 581 l 293 426 z m 338 404 l 338 441 l 293 413 l 293 375 z m 367 105 l 367 458 l 352 450 l 352 105 z m 475 175 q 476 201 458 220 q 441 240 413 240 q 398 240 381 231 l 381 105 l 405 106 q 420 107 439 118 q 458 129 466 141 q 474 153 475 175 z m 212 263 l 212 536 l 203 536 q 77 469 77 340 q 77 286 99 241 q 140 175 152 175 q 158 175 177 190 q 196 204 200 211 q 218 238 212 263 z m 338 389 q 321 378 294 361 q 294 330 295 306 q 297 298 307 286 q 315 281 329 284 l 329 278 q 286 249 171 176 q 167 174 158 168 q 174 154 227 129 q 241 122 274 114 q 308 105 321 105 l 337 105 l 338 212 q 273 174 273 151 q 273 132 290 132 q 306 132 310 142 q 295 141 295 154 q 295 167 307 167 q 323 167 323 150 q 323 127 295 123 q 266 118 263 145 q 259 184 338 223 z m 209 368 q 164 325 156 314 q 133 284 133 262 q 133 227 161 227 q 172 227 181 238 q 181 243 179 243 q 178 243 174 242 q 171 241 169 241 q 157 241 157 253 q 157 267 173 267 q 191 267 191 245 q 191 236 182 228 q 172 219 160 219 q 145 219 135 230 q 125 242 125 257 q 125 270 134 293 q 143 316 143 318 q 143 329 123 345 q 114 353 95 368 q 133 395 137 399 q 161 420 161 441 q 161 452 151 463 l 144 463 l 141 460 q 149 452 149 449 q 149 440 139 439 q 133 439 130 444 q 126 449 126 453 q 126 458 129 460 q 140 471 146 471 q 155 471 162 463 q 169 455 169 446 q 169 436 160 413 q 160 405 183 386 q 201 371 209 368 z"},"W":{"x_min":0,"x_max":948,"ha":948,"o":"m 869 216 q 841 188 841 162 q 841 165 845 140 q 827 146 819 146 q 793 146 761 115 l 769 115 l 776 113 q 796 113 812 98 q 827 82 829 61 q 831 37 812 17 q 792 -3 767 -3 q 750 -3 737 10 q 724 24 725 40 q 726 53 736 64 q 746 75 758 75 q 776 75 776 58 q 776 42 762 42 q 752 42 743 55 q 733 54 733 39 q 733 7 768 7 q 789 7 804 24 q 819 40 819 61 q 819 78 804 90 q 790 102 772 102 q 747 102 710 76 q 684 56 656 26 q 632 0 634 0 l 628 5 q 666 60 815 171 q 829 181 863 223 z m 736 688 q 736 673 743 666 q 830 581 849 556 q 895 493 895 412 q 895 309 837 233 q 801 186 707 112 q 613 39 577 -9 q 545 25 500 51 q 449 80 409 82 l 408 89 q 437 92 444 127 q 446 137 446 194 l 446 326 l 395 327 q 394 271 396 0 l 384 0 l 381 607 l 366 599 l 366 0 l 352 0 l 351 49 l 352 591 l 305 555 l 305 113 q 329 69 340 69 l 339 61 q 304 38 261 -28 q 206 -112 189 -132 q 145 -183 95 -183 q 56 -183 29 -162 l 11 -175 l 4 -168 q 12 -158 109 -50 l 115 -55 q 104 -79 104 -85 q 104 -97 122 -111 q 141 -125 154 -125 q 210 -125 210 27 l 210 449 q 210 488 209 495 q 204 525 182 525 q 172 524 149 522 q 123 519 99 521 q 59 524 32 544 q 0 567 0 605 q 0 684 75 690 q 99 692 120 675 q 141 658 143 634 q 145 611 128 594 q 112 577 90 577 q 74 577 61 588 q 48 600 47 615 q 53 641 78 644 q 110 642 110 602 q 131 606 128 629 q 123 674 72 674 q 47 674 30 654 q 14 633 14 606 q 14 575 42 558 q 66 543 98 543 q 217 543 295 690 l 302 690 l 302 575 q 350 611 445 688 q 467 669 510 641 q 542 621 577 598 q 555 582 550 577 q 542 566 542 546 l 542 381 l 608 381 l 608 409 q 584 429 575 444 q 566 459 558 492 q 555 539 572 563 q 579 572 621 607 q 643 619 679 639 q 699 653 736 688 z m 638 580 l 620 580 l 620 458 l 638 455 z m 607 577 q 591 574 580 550 q 568 525 571 507 q 574 490 586 476 q 598 461 607 462 l 607 533 q 607 577 607 577 z m 808 333 q 808 400 774 470 q 736 547 680 571 q 673 576 650 580 l 650 455 q 665 458 688 462 q 724 473 723 495 q 721 520 697 520 q 703 513 703 505 q 699 492 689 492 q 674 492 674 508 q 674 531 698 532 q 713 533 724 523 q 734 513 734 498 q 734 474 714 461 q 694 452 674 442 q 653 427 653 387 l 653 141 q 675 141 714 189 q 752 237 752 261 q 752 280 740 295 q 727 310 710 310 q 694 310 683 298 q 672 286 672 269 q 672 259 680 251 q 688 243 698 243 l 707 244 q 707 246 703 252 q 699 259 699 263 q 699 279 712 279 q 733 279 733 259 q 733 246 722 238 q 711 229 697 229 q 685 229 674 244 q 663 259 663 274 q 663 291 677 304 q 691 318 709 320 q 692 340 692 363 q 692 380 705 394 q 718 407 735 407 q 749 407 760 396 q 771 386 771 373 q 771 344 745 344 q 728 344 728 359 q 728 371 741 371 q 746 371 752 366 q 757 362 757 362 q 760 370 760 369 q 760 397 732 397 q 720 397 711 386 q 702 375 702 362 q 702 344 733 314 q 764 285 764 259 q 764 187 653 124 l 652 98 q 727 129 768 190 q 808 252 808 333 z m 396 616 l 396 381 l 448 381 l 448 564 z m 639 409 l 623 406 l 624 100 l 640 97 z m 606 326 l 540 326 l 540 231 q 540 176 548 153 q 562 113 607 104 q 607 180 606 326 z"},"A":{"x_min":0,"x_max":744,"ha":744,"o":"m 214 195 l 148 129 q 120 95 120 57 q 120 39 133 22 q 146 6 163 6 q 198 6 198 32 q 198 36 195 42 q 185 32 177 32 q 171 32 165 40 q 159 47 159 52 q 159 60 167 66 q 175 72 182 72 q 208 72 208 41 q 208 -4 162 -4 q 111 -4 108 54 q 107 71 121 103 q 135 135 135 130 q 135 137 104 162 q 73 187 62 192 l 95 217 q 129 243 129 262 q 129 280 104 304 q 79 327 60 332 l 58 337 q 84 344 112 370 q 141 395 141 419 q 141 451 119 451 q 115 451 111 447 q 111 446 116 440 q 121 434 121 432 q 121 416 107 416 q 91 416 91 437 q 91 461 117 461 q 152 461 152 424 q 152 405 142 391 q 161 361 212 333 q 200 325 175 305 q 143 280 143 264 q 143 239 214 195 z m 450 166 q 450 184 470 184 q 491 184 491 166 q 491 164 489 158 q 519 164 519 203 q 519 241 472 241 q 451 241 439 219 q 431 204 429 178 q 431 119 429 -1 l 412 -1 l 411 601 q 407 607 390 607 l 390 -1 l 373 -1 l 372 603 q 318 560 318 538 l 318 131 q 318 96 326 84 q 335 73 367 59 q 367 58 366 54 q 330 38 285 -27 q 218 -123 209 -133 q 161 -186 114 -186 q 90 -186 51 -161 q 49 -161 41 -167 q 31 -177 28 -178 q 27 -177 24 -176 q 21 -175 21 -170 l 150 -54 q 156 -62 158 -62 q 141 -82 141 -91 q 141 -106 154 -114 q 166 -123 181 -123 q 189 -123 202 -114 q 214 -106 217 -99 q 227 -77 227 -20 l 227 435 q 227 453 214 466 q 201 480 183 480 q 175 479 135 472 l 86 464 q 45 464 16 492 q -12 521 -12 564 q -12 596 12 620 q 36 643 67 643 q 96 643 119 626 q 142 609 143 581 q 144 562 128 544 q 113 526 93 526 q 77 526 62 536 q 48 547 48 559 q 48 574 56 586 q 64 597 76 597 q 93 597 102 584 q 111 571 108 556 q 107 555 109 553 q 125 562 125 580 q 125 603 108 616 q 90 629 67 627 q 44 625 24 605 q 3 585 3 562 q 3 530 28 506 q 52 481 84 481 q 182 481 347 609 q 441 682 446 682 q 425 682 466 661 q 494 647 531 632 q 568 618 590 618 q 623 618 672 648 q 673 648 676 646 q 679 644 679 643 l 679 636 l 491 523 q 490 529 493 544 q 493 552 464 572 q 435 592 429 593 l 429 387 q 435 390 475 422 q 481 428 496 445 q 503 454 503 467 q 503 479 494 488 q 484 498 472 498 q 461 498 454 485 q 458 486 466 485 q 476 483 476 473 q 476 458 460 458 q 444 458 444 477 q 444 508 475 508 q 491 508 504 494 q 517 480 515 466 q 512 441 470 402 q 428 364 428 362 l 428 350 l 550 351 l 550 490 q 550 493 550 498 q 549 503 548 505 q 543 516 530 516 q 524 516 515 513 l 670 616 l 673 613 l 675 605 q 639 583 639 533 l 639 140 q 639 113 641 105 q 648 78 677 78 q 694 78 714 98 q 719 93 719 90 l 619 -7 q 576 31 510 70 l 510 78 q 553 79 553 131 l 553 303 l 477 303 q 455 303 439 303 q 422 302 428 302 q 428 299 429 285 q 429 271 429 260 l 429 218 q 443 250 472 251 q 529 253 529 203 q 529 154 487 147 q 474 145 470 146 q 450 146 450 166 z"},"f":{"x_min":0,"x_max":285,"ha":285,"o":"m 344 657 q 344 631 301 603 q 294 598 243 570 q 209 552 194 542 l 190 552 q 222 578 222 586 q 222 605 207 633 q 192 661 175 661 q 146 661 146 597 l 146 442 l 243 442 l 244 493 l 259 493 l 259 246 l 251 246 q 251 290 235 338 q 210 412 161 412 q 147 412 147 399 l 147 167 q 147 126 161 112 q 162 111 196 96 q 145 42 127 -35 q 114 -89 117 -168 q 117 -172 112 -177 q 109 -176 105 -172 q 107 -114 103 -94 q 97 -58 72 4 q 42 80 15 96 q 66 101 66 167 l 66 410 l 1 410 l 1 440 l 60 441 l 60 540 q 52 563 41 570 q 30 576 6 576 l 6 581 q 23 587 62 611 q 74 621 97 640 q 120 658 131 667 q 160 687 191 687 q 223 687 248 668 q 264 654 294 625 q 298 621 307 621 q 315 621 324 632 q 333 644 332 652 q 322 643 315 643 q 294 643 294 662 q 294 685 317 684 q 344 682 344 657 z"},"Q":{"x_min":0,"x_max":642,"ha":642,"o":"m 621 161 q 621 146 611 135 q 601 124 587 124 q 580 124 571 131 q 562 138 562 144 q 560 168 581 168 q 594 168 593 155 q 592 154 588 142 q 585 138 593 133 q 601 133 606 142 q 612 152 612 160 q 612 188 573 188 q 553 188 521 157 l 490 127 q 484 133 484 136 q 484 94 542 180 q 596 261 605 290 l 614 287 q 610 276 610 266 q 610 248 620 230 q 619 231 615 231 q 605 231 592 224 q 578 217 574 209 q 569 209 567 201 q 570 197 573 197 q 575 197 579 198 l 585 198 q 621 198 621 161 z m 612 428 q 612 296 452 145 q 454 128 486 102 q 519 77 537 77 q 566 77 591 110 l 598 104 q 549 52 478 -33 l 472 -37 l 464 -29 l 468 -16 q 431 1 400 44 q 358 10 337 -36 l 328 -27 q 353 31 395 54 l 377 83 q 329 38 285 -32 q 282 -24 199 23 q 109 74 94 85 q 82 85 69 66 q 56 46 56 34 q 56 16 68 1 q 80 -14 95 -14 q 112 -14 120 0 l 121 11 l 105 6 q 92 7 92 25 q 92 40 109 40 q 115 40 125 28 q 135 16 135 10 q 135 -30 95 -30 q 72 -30 58 -12 q 45 5 45 30 q 45 71 83 97 q 8 190 8 274 q 8 459 182 556 l 189 546 q 74 473 74 347 q 74 251 178 162 l 204 184 q 224 201 224 259 l 224 528 q 224 572 189 572 q 181 572 167 566 q 153 561 147 561 q 125 556 108 556 q 33 556 28 634 q 26 663 44 680 q 63 696 94 696 q 113 696 131 678 q 149 660 149 641 q 149 634 138 609 q 117 599 105 599 q 92 599 82 608 q 72 618 72 631 q 72 660 101 660 q 119 660 129 633 l 131 634 q 134 643 134 646 q 134 659 119 671 q 104 683 90 683 q 46 683 43 637 q 41 608 62 591 q 84 574 113 574 q 197 574 275 661 q 287 675 310 701 q 308 611 310 576 q 333 590 439 699 l 445 699 q 444 696 444 688 q 444 674 488 645 q 541 610 568 573 q 612 514 612 428 z m 207 371 q 164 333 160 328 q 136 300 136 270 q 136 259 144 250 q 153 240 164 240 q 192 240 192 257 l 187 261 q 179 258 176 258 q 160 258 160 274 q 160 289 180 289 q 205 289 205 261 q 205 229 167 229 q 124 229 124 278 q 124 292 132 310 q 140 328 149 332 q 144 336 106 376 q 173 422 173 453 q 173 478 156 478 q 153 478 147 475 q 156 460 156 459 q 156 446 143 446 q 130 446 130 466 q 130 489 155 489 q 167 489 176 480 q 184 470 184 458 q 184 433 168 416 q 168 411 187 394 q 206 378 207 371 z m 541 343 q 541 406 507 475 q 465 560 400 571 q 399 502 400 184 l 441 155 q 455 157 490 208 q 526 258 532 276 q 541 304 541 343 z m 389 190 q 388 275 388 574 q 382 576 372 576 q 371 513 371 386 q 371 259 372 196 z m 359 197 l 358 576 q 336 576 310 558 l 310 295 q 306 273 325 273 q 335 273 343 277 l 344 266 l 266 212 q 226 184 191 153 q 216 133 222 133 q 241 133 273 162 q 305 191 320 194 q 336 196 359 197 z m 369 99 q 361 124 339 140 q 317 155 291 155 q 277 155 259 148 q 237 140 237 128 q 237 120 286 107 q 332 94 348 94 q 357 94 369 99 z m 473 219 q 461 205 437 182 q 434 180 432 176 l 423 185 q 423 152 460 218 q 497 284 497 306 q 497 357 456 357 q 442 357 430 348 q 419 339 419 326 q 419 295 445 295 q 448 296 453 298 q 441 303 441 315 q 439 332 457 332 q 474 332 474 311 q 474 284 442 284 q 428 284 418 295 q 409 306 409 321 q 409 367 461 368 q 415 405 415 439 q 415 457 426 470 q 438 483 456 483 q 471 483 482 472 q 494 462 494 448 q 494 424 474 424 q 459 424 459 437 q 459 450 474 450 q 477 450 483 447 l 484 448 q 484 474 455 474 q 444 474 435 464 q 426 453 426 441 q 426 419 468 378 q 509 336 509 304 q 509 263 473 219 z"},"w":{"x_min":0,"x_max":615,"ha":615,"o":"m 588 391 q 584 388 561 388 q 539 385 540 333 q 540 312 539 86 q 559 81 586 67 l 586 60 q 554 65 530 65 q 498 65 461 36 q 424 7 409 -24 q 303 62 233 71 q 226 69 220 70 q 221 71 242 93 q 260 112 260 132 l 260 349 q 260 374 259 378 q 255 394 236 394 l 171 394 q 144 394 144 333 l 144 132 q 144 101 160 88 q 165 83 194 70 q 158 47 147 34 q 135 18 110 -13 q 94 7 69 34 q 55 49 23 70 q 50 93 57 102 q 64 112 67 129 l 67 331 q 67 380 48 380 q 33 380 8 358 l 3 367 l 103 471 q 158 406 209 410 q 262 415 305 467 q 331 435 341 427 q 364 408 399 410 q 451 413 495 467 q 526 429 549 414 q 565 404 588 391 z m 371 391 q 340 384 340 354 q 340 347 342 335 l 342 111 q 406 91 442 52 l 455 59 l 455 344 q 455 368 452 376 q 447 389 427 394 q 396 393 388 394 l 386 394 q 386 395 388 395 l 386 395 q 382 394 371 391 z"},"-":{"x_min":0,"x_max":296,"ha":296,"o":"m 36 243 q 44 245 91 245 q 146 245 255 243 l 235 204 l 13 204 q 36 241 36 243 z"},"E":{"x_min":0,"x_max":626,"ha":626,"o":"m 616 630 q 616 603 581 568 q 572 559 525 521 q 497 504 434 458 q 459 457 534 458 l 534 494 l 548 494 l 548 355 l 536 355 q 540 384 526 386 q 487 386 430 385 l 430 297 q 446 308 478 332 q 484 338 488 352 q 488 363 476 366 q 474 369 469 367 l 466 363 q 472 354 472 354 q 472 346 458 341 q 446 341 446 353 q 446 376 473 377 q 484 377 492 369 q 499 361 499 354 q 499 334 474 316 l 431 286 q 431 271 430 263 q 465 281 547 339 l 552 334 q 549 328 537 315 q 590 295 590 236 q 590 201 560 171 q 550 161 494 118 q 475 107 430 74 q 405 56 362 13 q 353 5 330 -19 q 326 -15 314 -4 q 295 14 209 36 q 123 59 78 102 q 76 104 74 104 q 65 104 52 85 q 38 66 38 50 q 38 15 79 15 q 90 15 100 22 q 109 30 109 41 q 109 45 104 53 q 103 53 95 44 q 87 34 82 34 q 67 34 67 50 q 67 70 86 70 q 119 70 119 41 q 119 25 104 14 q 90 2 74 2 q 54 2 39 18 q 24 34 24 52 q 24 85 62 114 q 50 130 32 157 q 2 225 2 287 q 2 442 183 537 q 194 543 232 562 l 232 588 q 146 544 108 548 q 84 550 81 551 q 72 553 58 564 q 34 582 34 612 q 34 636 51 654 q 68 672 90 672 q 121 672 135 643 q 139 638 139 627 q 139 617 130 606 q 122 595 112 595 q 81 595 81 622 q 81 635 105 648 q 104 657 87 657 q 71 657 60 644 q 49 632 49 616 q 48 563 115 563 q 158 563 225 605 q 287 644 316 683 q 325 698 325 698 q 324 665 325 605 q 328 602 356 620 q 383 637 394 647 q 418 668 428 694 q 435 678 454 653 q 531 584 563 589 q 604 589 604 626 q 604 641 593 651 q 582 661 568 659 q 576 649 576 636 q 576 616 558 616 q 530 616 530 642 q 530 660 542 670 q 554 679 572 676 q 590 673 603 660 q 616 646 616 630 z m 584 62 q 585 42 571 29 q 557 16 539 15 q 524 14 513 24 q 502 34 501 49 q 500 61 508 70 q 516 80 526 80 q 548 83 548 65 q 548 47 534 47 q 526 47 515 62 q 512 58 512 51 q 512 24 540 25 q 554 26 564 37 q 575 48 574 63 q 573 78 561 87 q 549 96 535 95 q 519 94 510 89 q 460 61 460 36 q 460 28 464 23 l 468 18 q 470 15 464 15 q 463 15 450 20 q 436 25 434 24 q 421 23 386 -7 q 384 -6 381 -2 q 381 -1 428 36 q 497 90 568 151 q 575 151 578 144 q 566 134 532 106 q 582 104 584 62 z m 480 520 q 480 541 426 572 l 426 471 q 480 503 480 520 z m 412 461 l 412 580 q 400 592 394 592 l 394 444 q 412 458 412 461 z m 381 598 q 371 601 366 601 q 360 601 325 580 q 323 445 325 398 q 337 406 380 436 z m 517 188 q 517 233 477 252 q 470 256 458 256 q 446 256 432 250 l 432 110 q 435 111 444 114 q 517 137 517 188 z m 414 384 l 394 388 l 394 106 l 414 108 z m 378 222 q 356 213 320 188 q 311 181 311 168 q 311 151 327 151 q 323 156 326 170 q 334 179 340 179 q 356 179 356 164 q 356 146 335 141 q 330 139 328 141 q 302 141 302 168 q 302 187 322 202 q 328 206 340 214 q 352 221 358 226 q 365 230 377 236 l 377 385 l 326 385 l 326 305 q 328 294 340 294 q 348 294 363 300 q 364 299 362 294 q 362 290 363 289 l 188 156 q 277 111 378 106 z m 232 263 l 232 540 l 223 536 q 161 509 124 450 q 86 392 86 324 q 86 280 109 232 q 135 178 172 166 q 177 164 195 182 q 210 197 217 206 q 224 216 230 235 q 235 254 232 263 z m 226 367 q 177 318 173 313 q 150 284 150 261 q 150 226 178 226 q 189 226 198 237 q 198 242 196 242 q 195 242 192 241 q 188 240 186 240 q 174 240 174 252 q 174 266 190 266 q 208 266 208 244 q 208 222 177 218 q 161 216 150 231 q 140 246 140 264 q 140 278 150 297 q 160 316 160 317 q 160 328 141 344 q 126 354 112 367 q 150 394 154 398 q 178 419 178 440 q 178 452 169 462 l 162 462 l 158 459 q 166 453 166 448 q 166 438 156 438 q 150 438 148 444 q 145 449 145 453 q 145 458 146 459 q 160 470 163 470 q 172 470 179 462 q 186 454 186 445 q 186 435 178 412 q 178 404 201 385 q 213 375 226 367 z"},"s":{"x_min":0,"x_max":392,"ha":392,"o":"m 345 210 q 342 150 305 109 q 284 87 231 50 q 183 17 169 -13 l 163 -6 q 153 10 118 26 q 82 42 62 42 q 39 42 11 22 l 4 30 q 65 77 70 81 q 106 109 131 137 q 107 157 -6 183 l 30 201 q 40 208 40 249 q 40 332 32 350 q 28 359 16 366 q 8 369 -4 377 q -4 377 31 382 q 113 394 172 433 q 177 435 200 456 q 222 477 225 477 q 289 418 301 418 q 313 418 332 430 l 338 421 l 238 337 q 241 334 244 333 q 295 308 316 287 q 347 256 345 210 z m 238 360 q 238 375 214 391 q 189 407 172 407 q 155 407 138 396 q 118 383 118 368 l 118 262 q 127 266 148 275 q 158 283 198 316 q 238 348 238 360 z m 285 152 q 285 198 250 231 q 216 264 169 264 q 152 264 136 257 q 115 248 115 234 q 115 233 116 231 l 116 228 q 182 198 193 198 q 199 198 212 208 q 225 218 226 218 q 236 218 234 210 q 151 150 138 130 q 134 124 134 112 q 134 94 162 80 q 187 67 207 67 q 238 67 262 94 q 285 120 285 152 z"},">":{"x_min":0,"x_max":412,"ha":412,"o":"m 331 297 l 57 91 l 27 118 l 267 297 l 24 487 l 54 515 q 164 428 321 306 q 329 298 331 297 z"},"l":{"x_min":0,"x_max":233,"ha":233,"o":"m 216 82 q 204 72 176 46 q 167 38 138 10 q 115 -12 112 -12 q 108 -12 95 1 q 75 17 70 21 q 35 45 -6 66 q -2 78 5 76 q 13 73 16 73 q 40 73 45 114 l 44 497 q 43 506 43 524 q 43 549 31 559 q 24 565 -2 575 q -2 584 3 584 q 4 584 9 582 q 14 581 16 582 q 44 586 88 615 q 148 654 158 657 q 163 660 201 670 l 201 661 l 163 644 q 151 639 140 618 q 128 597 128 584 l 128 98 q 167 68 175 64 q 179 64 190 74 q 207 86 211 89 q 214 87 215 88 l 216 88 z"},"8":{"x_min":0,"x_max":461,"ha":461,"o":"m 434 152 q 377 129 314 76 q 250 24 216 -28 q 212 -13 168 6 q 113 29 90 48 q 50 80 50 137 q 50 183 92 231 q 128 272 175 295 q 166 304 133 330 q 107 351 97 370 q 67 431 70 449 q 66 449 64 450 q 56 446 53 445 q 49 450 50 457 q 139 483 236 565 q 248 578 273 602 q 281 585 292 578 q 293 578 332 557 q 354 545 369 530 q 392 507 392 471 q 392 392 288 330 l 339 294 q 387 249 413 163 q 414 158 422 160 q 442 162 433 162 q 434 156 434 152 z m 326 420 q 326 454 290 486 q 253 518 218 518 q 193 518 171 496 q 149 475 151 451 q 152 428 205 383 q 254 341 270 341 q 288 341 307 371 q 326 401 326 420 z m 333 132 q 333 192 230 262 q 218 272 213 277 q 197 289 196 288 q 165 273 142 245 q 116 214 116 183 q 116 139 164 102 q 212 65 257 65 q 287 65 310 85 q 333 105 333 132 z"},"\\":{"x_min":0,"x_max":285,"ha":285,"o":"m 132 -188 q 131 -189 122 -189 q 112 -189 111 -188 q 112 -171 112 -134 q 112 -50 93 135 q 75 314 79 413 q 77 415 3 412 l 2 475 q 38 474 57 474 q 75 474 76 475 l 76 530 q 76 519 72 571 q 69 583 46 583 l 8 583 l 8 601 q 9 600 19 600 q 77 599 116 617 q 185 649 241 705 q 248 712 273 680 q 298 645 298 645 q 303 648 337 677 q 345 676 346 674 l 346 665 q 266 602 233 531 q 221 543 221 543 q 226 553 238 581 l 191 636 q 190 637 177 628 q 170 623 162 616 l 162 410 q 162 310 147 111 q 132 -88 132 -188 z"},"e":{"x_min":0,"x_max":344,"ha":344,"o":"m 310 304 q 239 256 127 173 l 128 110 l 208 55 l 259 102 l 268 93 l 157 -14 l 6 78 q 46 99 46 129 l 45 334 q 45 349 31 363 q 17 377 1 380 q 92 392 221 468 q 253 405 310 304 z m 227 265 l 151 411 l 129 400 l 129 193 z"},"b":{"x_min":0,"x_max":415,"ha":415,"o":"m 388 399 q 374 393 356 383 q 343 373 343 352 l 342 129 q 342 98 381 70 l 331 71 q 295 72 258 51 q 221 30 201 -1 l 190 -13 q 165 9 107 39 q 46 71 16 77 q 11 78 -1 80 q 49 106 49 135 l 50 526 q 50 552 34 564 q 25 571 0 578 l 1 580 q 55 588 118 636 q 180 683 225 684 q 272 685 302 660 q 331 636 329 599 q 328 566 302 546 q 275 526 240 526 q 208 526 175 550 l 160 544 l 157 550 l 223 620 l 220 602 q 220 591 236 582 q 252 573 270 573 q 313 574 313 603 q 313 669 225 672 q 182 673 155 631 q 132 595 132 549 l 131 366 l 282 475 q 338 407 388 399 z m 267 362 l 221 407 l 131 344 l 131 122 q 167 107 232 57 l 267 77 z"},"%":{"x_min":0,"x_max":694,"ha":694,"o":"m 289 607 q 289 605 276 596 q 264 586 264 585 q 250 571 250 549 l 250 351 q 250 311 261 291 q 192 297 150 286 q 145 285 92 252 q 114 252 71 270 q 28 288 9 288 q 0 288 4 295 q 20 307 37 333 l 38 550 q 38 573 30 592 q 28 596 25 604 q 63 599 55 599 q 103 599 141 614 q 168 625 195 649 q 195 649 258 600 q 283 613 286 613 z m 191 558 q 148 598 144 598 q 140 598 120 592 q 99 585 96 585 l 96 337 q 145 306 153 303 q 156 303 190 312 z m 649 347 q 649 345 636 336 q 624 326 624 325 q 610 311 610 289 l 610 91 q 610 51 621 31 q 543 38 513 29 q 505 27 448 -5 q 469 -5 430 12 q 391 30 372 30 q 359 30 364 35 q 380 47 397 73 l 398 290 q 398 315 380 332 q 381 333 385 344 q 423 339 415 339 q 463 339 501 354 q 528 365 555 389 q 555 389 618 340 q 643 353 646 353 z m 551 298 q 508 338 504 338 q 500 338 480 332 q 459 325 456 325 l 456 77 q 505 46 513 43 q 516 43 550 58 z m 553 622 q 509 560 332 309 l 106 -11 l 85 4 l 311 324 q 372 412 532 637 q 534 640 544 632 q 555 624 553 622 z"},"m":{"x_min":0,"x_max":634,"ha":634,"o":"m 618 71 l 517 -14 q 484 28 430 60 q 435 63 444 68 q 454 72 458 74 q 471 84 471 115 l 472 348 q 472 387 406 387 q 374 387 362 382 q 344 374 344 347 l 344 108 q 344 70 384 60 l 338 25 q 331 18 303 -15 q 298 -13 270 25 q 254 39 219 61 q 244 70 248 73 q 262 84 262 113 l 262 348 q 262 374 242 382 q 232 386 204 386 q 168 386 156 382 q 134 374 134 347 l 134 108 q 134 76 172 64 q 160 56 133 36 q 118 25 108 9 l 93 -15 q 91 -11 83 0 q 53 38 3 70 q 10 69 24 69 q 52 70 52 121 l 52 366 q 52 396 30 396 q 25 396 13 386 q 1 377 0 377 q -3 377 -6 388 q 11 401 54 437 q 63 445 93 478 q 95 471 98 464 q 101 456 101 456 q 113 439 145 417 q 168 402 195 402 q 242 402 264 433 q 270 442 301 476 l 303 478 q 309 468 320 453 q 358 403 409 403 q 430 403 455 410 q 491 420 511 476 q 518 453 546 430 q 574 407 599 400 q 601 393 588 392 q 570 390 569 389 q 557 384 552 346 l 552 114 q 552 64 580 60 q 585 65 615 80 q 617 79 618 71 z"},"#":{"x_min":0,"x_max":466,"ha":466,"o":"m 465 405 l 355 405 l 329 264 l 446 264 l 436 208 l 319 208 l 278 -7 l 229 -7 l 270 208 l 160 208 l 119 -7 l 71 -7 l 111 208 l -4 208 l 7 264 l 121 264 l 148 405 l 25 405 l 36 461 l 158 461 l 199 676 l 248 676 l 207 461 l 316 461 l 357 676 l 406 676 l 365 461 l 476 461 z m 196 405 l 169 264 l 281 264 l 307 405 z"},",":{"x_min":0,"x_max":181,"ha":181,"o":"m 162 65 q 116 87 93 138 q 68 97 15 62 q 55 44 78 12 q 50 -34 54 -94 l 68 -94 q 70 -61 102 -6 q 134 48 162 65 z"},"n":{"x_min":0,"x_max":415,"ha":415,"o":"m 408 71 l 307 -14 q 273 28 219 61 q 244 70 248 73 q 262 84 262 113 l 262 348 q 262 392 200 392 q 134 392 134 347 l 134 108 q 134 74 173 63 l 173 59 q 139 40 137 39 q 119 27 108 9 l 93 -15 q 89 -13 82 0 q 66 28 3 70 q 10 69 24 69 q 52 70 52 121 l 52 366 q 52 396 30 396 q 25 396 13 386 q 1 377 0 377 q -3 377 -6 388 q 11 401 54 437 q 63 445 93 478 q 99 468 110 453 q 148 403 199 403 q 220 403 245 410 q 281 420 301 476 q 308 453 336 430 q 364 407 389 400 q 390 393 361 386 q 348 380 343 344 l 343 107 q 343 60 370 60 q 379 60 404 78 q 406 77 408 71 z"},"h":{"x_min":0,"x_max":409,"ha":409,"o":"m 132 356 l 287 470 q 319 431 336 418 q 347 406 378 387 q 333 369 333 350 l 333 120 q 333 66 381 67 l 381 58 q 329 58 263 -1 q 202 -56 202 -100 q 202 -124 234 -124 q 244 -124 259 -116 q 274 -109 274 -109 q 275 -110 281 -117 q 250 -144 175 -203 l 168 -198 q 168 -193 176 -185 q 135 -164 133 -131 q 132 -101 165 -71 q 192 -46 218 -25 q 250 10 250 38 l 251 333 q 251 390 221 390 q 189 390 132 331 l 131 271 l 132 144 q 130 130 135 98 q 143 75 175 71 l 175 65 q 151 62 125 38 q 99 13 90 -12 q 89 -14 87 -12 q 78 18 59 39 q 36 65 8 65 l 8 71 q 20 75 27 77 q 41 83 44 94 q 52 121 49 144 l 49 525 q 40 566 0 578 l 1 580 q 45 585 118 635 q 188 683 229 684 q 275 685 302 662 q 329 638 329 599 q 329 569 302 548 q 274 526 240 526 q 208 526 175 550 l 160 544 l 157 550 l 223 620 l 220 602 q 220 591 236 582 q 252 573 270 573 q 313 574 313 603 q 313 635 288 655 q 262 675 225 672 q 190 669 160 623 q 132 581 132 543 z"},"z":{"x_min":0,"x_max":295,"ha":295,"o":"m 285 471 l 131 325 q 154 292 262 278 q 264 268 262 266 q 254 264 236 261 q 218 254 218 229 l 218 131 q 218 93 267 86 q 269 85 267 77 q 256 76 215 64 q 81 1 71 -41 q 69 -49 69 -58 q 69 -100 102 -100 q 112 -100 150 -77 l 156 -84 l 52 -161 l 46 -155 q 47 -155 55 -147 q 44 -146 26 -133 q 15 -125 15 -99 q 15 -70 53 -27 q 81 5 115 30 q 140 48 140 84 l 140 222 q 134 234 110 247 q 85 260 70 260 q 64 260 53 254 q 41 245 32 241 q 29 243 27 248 l 184 396 l 50 398 q 44 396 16 374 q 7 376 7 384 q 56 427 96 483 l 103 483 q 105 478 106 464 l 248 464 q 252 464 274 472 q 283 469 285 471 z"},"B":{"x_min":0,"x_max":649,"ha":649,"o":"m 152 511 q 152 524 144 538 q 137 552 126 552 q 100 553 60 557 q 42 562 32 580 q 22 599 25 620 q 31 665 89 665 q 104 665 118 651 q 131 637 131 622 q 131 610 122 600 q 113 590 104 590 q 91 590 80 598 q 68 607 68 619 q 68 626 76 636 q 83 645 91 644 q 87 651 81 651 q 40 651 39 611 q 38 570 87 568 q 125 567 166 595 q 203 621 223 656 q 227 667 233 676 l 243 676 l 242 557 q 244 556 242 551 q 242 547 245 547 q 247 547 258 556 q 270 564 272 564 q 291 574 344 614 l 428 677 q 430 675 432 668 q 432 665 435 659 q 490 601 572 546 q 580 546 595 543 q 598 541 603 533 q 602 532 454 416 l 478 397 q 559 474 602 496 q 599 491 592 477 q 589 471 589 452 l 566 452 q 560 452 543 435 q 579 430 581 398 q 582 386 573 376 q 564 367 552 367 q 533 368 535 385 q 536 398 548 398 q 552 396 561 387 q 568 387 568 403 q 568 425 535 425 q 525 425 512 411 q 503 402 489 389 q 539 359 542 358 q 572 337 585 315 q 606 280 604 234 q 603 204 563 162 q 533 130 494 106 q 439 72 414 60 q 400 50 366 30 q 344 17 310 -20 q 300 -13 276 3 q 187 65 128 67 q 97 68 86 64 q 65 56 62 28 q 61 22 68 12 q 75 3 81 3 l 92 3 q 94 8 94 9 q 94 10 90 18 q 86 26 86 29 q 86 34 96 40 q 106 47 111 47 q 137 47 136 22 q 134 -9 93 -9 q 75 -9 62 2 q 48 13 48 28 q 48 50 100 98 q 153 147 153 168 q 153 237 152 339 q 151 462 152 511 z m 482 476 q 483 507 443 548 q 403 590 372 590 q 335 590 335 578 q 336 523 335 396 l 345 402 q 361 416 392 444 q 424 473 424 505 q 424 540 391 540 q 383 540 372 530 q 360 520 360 512 q 360 492 372 492 q 376 492 380 495 q 377 498 377 502 q 377 514 392 514 q 404 513 404 502 q 404 482 379 482 q 350 482 351 510 q 353 549 393 548 q 408 548 422 534 q 436 519 436 501 q 435 444 335 381 q 335 343 335 352 q 355 362 373 374 q 413 401 428 412 q 464 438 477 454 q 481 460 482 476 z m 322 94 l 320 572 q 306 574 306 563 l 307 158 q 307 94 306 102 q 308 94 322 94 z m 352 333 q 343 333 338 328 l 337 233 q 392 317 401 315 q 416 315 414 310 q 403 299 368 257 q 380 261 394 261 q 428 261 450 238 q 472 215 471 183 q 471 167 457 150 q 447 125 409 125 q 389 125 374 138 q 360 151 360 173 q 360 185 372 198 q 383 211 398 210 q 425 209 425 190 q 425 169 407 170 q 400 170 392 177 q 392 179 401 200 l 389 199 q 372 195 370 171 q 369 156 382 146 q 396 135 411 135 q 428 135 442 152 q 457 168 457 184 q 457 210 438 230 q 419 250 392 251 q 378 251 363 242 q 334 224 334 182 l 334 90 q 350 73 384 71 q 409 70 448 94 q 486 118 495 141 q 506 168 506 194 q 506 253 459 292 q 412 332 352 333 z m 291 135 q 249 159 215 159 q 214 161 215 165 q 216 169 221 169 q 232 169 258 158 q 285 148 290 148 l 291 559 l 280 552 q 267 544 245 528 q 244 466 244 260 q 247 251 252 231 q 258 229 273 223 q 274 222 274 220 q 233 196 174 149 q 173 148 173 144 q 197 144 226 133 q 248 124 291 106 z m 584 48 q 582 5 534 5 q 519 5 509 16 q 499 27 500 42 q 501 54 510 63 q 518 72 528 71 q 549 69 548 53 q 548 49 543 43 q 538 37 533 37 q 524 37 515 54 q 511 50 511 41 q 511 16 537 15 q 551 14 562 24 q 573 35 574 50 q 575 65 564 74 q 552 84 538 85 q 524 86 513 81 q 458 55 458 31 q 458 25 461 20 l 465 14 q 465 10 460 12 q 458 12 445 18 q 432 23 431 23 q 415 23 376 -2 q 370 -1 370 4 q 370 9 431 47 q 481 78 503 90 q 551 116 576 137 q 582 137 585 130 q 572 121 536 96 q 585 90 584 48 z m 96 245 q 82 226 79 221 q 73 212 73 197 q 73 185 82 174 q 90 164 102 164 q 112 164 117 169 q 117 171 116 173 q 107 172 99 180 q 91 189 94 197 q 103 206 112 206 q 135 206 135 180 q 135 160 106 154 q 87 150 74 167 q 61 184 61 204 q 61 222 78 240 q 80 242 80 245 q 80 259 36 292 q 38 296 64 317 q 86 335 86 350 q 86 362 34 404 q 37 405 56 422 q 102 462 102 495 q 102 522 82 522 q 75 522 70 517 q 84 503 84 499 q 84 484 72 484 q 63 484 56 492 q 50 499 50 506 q 50 532 76 532 q 93 532 103 520 q 113 508 113 492 q 113 487 102 454 q 101 445 123 423 q 142 404 147 401 q 98 367 98 350 q 98 339 118 314 q 139 290 147 290 q 119 275 96 245 z"},"K":{"x_min":0,"x_max":630,"ha":630,"o":"m 607 428 q 581 412 585 384 q 584 383 576 384 q 572 385 567 386 q 560 386 546 378 q 552 375 566 366 q 570 364 576 353 q 581 342 581 336 q 581 328 570 319 q 559 310 552 310 q 543 310 534 316 q 525 321 525 327 q 525 339 534 340 l 543 340 q 547 322 553 322 q 558 322 566 329 q 569 344 561 354 q 553 365 541 365 q 526 365 514 356 q 494 341 485 335 q 484 336 477 337 l 605 435 z m 626 659 q 473 550 473 539 q 473 523 506 496 q 535 473 543 471 q 580 463 597 462 q 598 463 599 454 l 455 343 q 457 338 469 329 q 486 316 513 299 q 546 281 568 280 q 571 279 574 276 q 571 261 537 246 l 538 96 q 539 95 551 81 l 558 81 q 564 81 577 90 q 590 99 596 99 l 599 97 l 599 89 q 565 64 546 47 q 512 17 493 -8 q 488 -8 484 -4 q 481 7 450 44 q 443 53 425 61 q 407 69 403 73 q 404 79 419 82 q 434 85 440 98 q 443 106 444 124 q 445 141 442 165 q 442 174 443 182 l 443 200 q 443 252 400 265 q 406 265 389 272 q 377 277 371 277 q 361 277 353 271 l 353 94 q 354 93 358 93 q 365 94 397 124 q 416 147 416 160 q 416 172 408 182 q 400 192 391 192 q 383 192 372 181 q 377 180 395 171 l 395 159 q 384 151 378 151 q 360 151 360 178 q 360 188 375 195 q 386 200 395 200 q 409 200 418 187 q 428 174 428 161 q 428 127 387 99 q 351 80 316 60 q 255 25 225 -10 q 203 15 164 36 q 122 58 91 58 q 46 58 46 28 q 46 7 72 2 q 75 4 75 7 q 68 22 69 28 q 75 45 89 45 q 118 45 118 20 q 118 6 106 -3 q 93 -12 77 -12 q 59 -12 46 1 q 32 14 32 30 q 32 53 57 75 q 64 80 82 91 q 91 96 133 123 q 165 144 173 182 q 177 199 176 256 l 174 381 q 172 402 173 440 q 176 510 145 517 q 143 518 82 527 q 43 533 20 562 q 7 578 7 609 q 7 679 103 679 q 117 679 136 662 q 156 644 156 618 q 156 592 136 580 q 115 568 96 568 q 79 568 68 580 q 57 591 57 607 q 57 619 68 628 q 78 636 90 636 q 99 636 110 629 q 121 622 120 614 q 119 608 115 591 q 114 588 117 588 q 126 588 134 602 q 139 614 139 619 q 139 639 123 652 q 107 665 85 665 q 63 665 44 647 q 24 629 24 608 q 24 576 50 556 q 73 539 106 539 q 172 539 240 585 q 300 626 340 687 q 341 687 355 676 q 369 666 376 666 l 626 666 z m 158 386 q 158 378 134 367 q 98 342 98 320 q 98 293 157 260 l 157 250 q 109 220 98 210 q 73 187 73 161 q 73 130 101 130 q 106 130 114 137 l 114 143 q 113 145 108 148 q 102 152 100 153 q 97 158 102 168 q 106 178 113 178 q 131 178 131 157 q 131 118 91 118 q 83 118 73 134 q 63 149 63 158 q 63 160 77 202 q 77 212 49 232 q 21 252 21 255 q 21 261 26 263 q 37 265 61 288 q 85 311 85 322 q 85 342 17 384 q 16 388 30 396 q 45 403 47 405 q 86 436 99 462 q 104 472 104 486 q 104 491 98 502 q 91 512 86 512 l 70 512 l 67 508 q 68 506 76 500 q 83 493 83 487 q 83 482 78 478 q 72 473 68 473 q 48 473 48 495 q 48 504 59 512 q 70 520 80 520 q 95 520 104 507 q 114 494 114 479 q 114 476 108 461 q 102 446 102 443 q 102 428 130 408 q 158 387 158 386 z m 405 19 q 405 8 396 0 q 388 -8 380 -8 q 375 -7 360 -2 l 360 12 q 365 21 371 21 q 380 21 386 8 q 393 12 393 20 q 393 29 382 35 q 370 41 358 41 q 328 41 275 2 l 267 2 q 276 20 305 35 q 334 50 355 50 q 364 50 379 46 q 394 41 396 37 q 405 22 405 19 z m 490 575 l 367 578 q 360 578 348 573 q 347 569 348 559 q 349 553 350 548 l 350 473 l 357 473 q 381 494 485 566 q 490 571 490 575 z m 335 517 l 335 578 l 321 578 q 320 577 316 573 l 316 446 q 326 450 332 455 q 335 466 335 517 z m 494 393 q 479 400 438 429 q 427 442 390 479 q 386 477 366 464 q 352 455 350 447 l 352 343 q 370 351 390 368 q 414 389 414 403 q 414 427 391 427 q 393 427 376 420 q 379 417 380 415 q 395 417 395 403 q 395 392 382 392 q 366 392 366 415 q 366 423 375 429 q 384 435 394 435 q 404 435 413 427 q 422 419 422 407 q 422 397 419 392 q 405 365 381 349 q 372 343 352 326 q 350 320 350 304 l 350 293 l 357 293 q 393 317 428 340 q 470 369 494 393 z m 304 441 l 302 575 q 293 578 282 578 q 260 578 263 566 l 268 409 q 304 429 304 441 z m 450 242 q 449 245 447 245 q 445 245 443 242 z m 335 327 l 335 437 q 331 438 325 434 q 319 429 319 426 q 318 413 320 385 q 320 384 317 364 l 317 269 q 334 272 336 292 q 335 282 335 327 z m 339 100 l 339 262 l 330 262 q 324 258 319 253 l 319 77 q 339 72 339 100 z m 306 73 l 306 101 q 266 123 217 145 q 217 145 214 148 q 211 150 209 152 l 213 155 l 218 155 q 226 152 253 139 q 291 120 304 116 l 302 415 q 269 397 268 389 q 269 378 268 355 q 267 339 267 332 q 267 294 272 236 q 282 234 294 222 q 260 200 165 136 q 164 135 164 131 q 190 121 220 109 q 230 102 259 87 q 298 72 300 70 q 303 70 306 73 z"},"R":{"x_min":0,"x_max":604,"ha":604,"o":"m 567 450 q 555 443 527 420 q 559 411 559 384 q 559 351 526 351 q 519 351 510 357 q 501 363 501 369 q 501 387 517 387 q 525 387 527 377 q 530 364 530 364 q 537 363 543 370 q 549 376 549 383 q 549 408 523 408 q 513 408 470 380 q 462 382 462 385 l 559 457 q 567 457 567 450 z m 582 94 q 582 90 556 70 q 536 55 504 18 q 476 -14 474 -15 q 472 -15 464 -2 q 457 12 456 13 q 422 52 386 74 q 381 78 375 82 q 382 84 395 90 q 415 101 417 110 q 423 139 423 249 q 423 297 378 318 q 370 321 352 326 q 335 331 326 333 l 326 94 q 349 108 373 146 q 397 185 399 211 q 403 267 369 267 q 346 267 346 242 q 346 230 357 225 q 359 227 361 235 q 363 243 372 243 q 384 243 384 228 q 384 210 364 210 q 352 210 344 220 q 335 230 335 242 q 335 279 374 278 q 412 277 412 224 q 412 180 379 133 q 348 90 320 71 q 308 63 271 33 q 241 3 225 -12 q 220 -5 210 8 q 195 24 137 63 q 126 70 96 70 q 80 70 64 56 q 47 42 47 27 q 47 1 67 1 l 83 1 q 85 5 83 27 q 82 42 100 42 q 122 42 122 20 q 122 7 106 -5 q 91 -17 77 -17 q 59 -17 45 -4 q 31 9 31 27 q 31 61 94 110 q 156 160 156 186 q 156 191 157 239 q 157 286 157 328 l 157 482 q 157 515 151 525 q 142 541 111 541 q 106 541 96 539 q 85 537 80 537 q 49 537 25 559 q 1 581 -3 614 q 17 685 70 685 q 89 685 108 669 q 127 653 127 633 q 127 615 112 599 q 98 583 80 583 q 70 583 58 594 q 47 604 47 616 q 47 625 56 634 q 66 644 76 644 q 95 644 107 619 q 112 621 112 626 q 112 644 100 657 q 88 670 73 670 q 49 670 32 654 q 14 639 14 616 q 14 590 34 572 q 53 555 79 555 q 62 555 84 563 q 112 573 141 584 q 179 598 189 609 q 220 642 236 681 q 241 687 244 687 q 247 687 247 669 l 247 555 q 247 548 253 548 q 260 548 358 618 q 457 688 460 688 q 468 688 468 683 q 468 667 496 650 q 533 627 547 613 q 575 584 575 539 q 575 495 476 421 q 444 397 441 393 q 441 387 475 362 q 509 336 517 334 q 531 331 555 322 q 542 312 520 289 q 506 268 513 152 q 514 132 516 111 q 522 84 546 84 q 553 84 564 92 q 575 99 575 99 q 582 99 582 94 z m 402 19 q 401 -7 379 -7 q 361 -7 361 7 q 361 20 371 20 q 383 13 383 13 q 390 13 388 21 q 388 40 352 40 q 327 40 305 26 q 267 2 265 0 q 276 20 306 36 q 335 52 359 52 q 376 52 390 42 q 403 33 402 19 z m 493 481 q 493 524 456 556 q 419 589 375 589 q 348 589 323 570 l 324 385 q 376 412 392 423 q 436 454 436 488 q 436 508 423 526 q 410 545 390 545 q 379 542 379 542 q 379 542 377 543 l 375 543 q 365 543 356 531 q 348 519 348 509 q 348 486 374 478 q 374 479 371 482 q 368 486 368 492 q 368 512 385 512 q 402 512 402 494 q 402 468 372 468 q 357 468 347 482 q 337 495 337 510 q 337 526 352 541 q 366 556 384 556 q 413 556 430 536 q 448 516 448 486 q 448 428 324 373 l 324 346 q 493 422 493 481 z m 311 340 l 311 564 l 295 557 l 295 331 z m 284 550 q 274 547 247 528 l 247 296 q 247 234 274 226 q 256 208 206 172 q 157 136 160 136 q 203 131 284 90 l 284 118 q 264 124 197 149 q 200 156 205 158 q 209 158 284 128 z m 314 328 q 310 326 295 318 l 296 84 l 314 92 z m 76 202 q 76 188 83 178 q 91 163 106 163 q 129 163 129 180 q 129 188 124 191 q 121 178 108 178 q 97 178 97 189 q 97 205 119 205 q 139 205 139 179 q 139 154 105 152 q 87 151 76 166 q 65 180 65 199 q 65 222 81 251 q 60 280 27 293 q 87 319 87 348 q 87 371 26 405 q 107 452 107 485 q 107 508 85 510 q 72 511 72 503 q 94 500 94 489 q 94 486 92 482 q 85 472 77 473 q 56 475 56 498 q 56 519 86 519 q 119 519 119 484 q 119 473 105 451 q 105 437 160 402 q 97 355 97 347 q 97 337 128 315 q 155 295 162 294 q 137 287 107 258 q 76 226 76 202 z"},"T":{"x_min":0,"x_max":662,"ha":662,"o":"m 420 578 l 404 578 l 404 229 q 406 229 420 236 z m 535 180 q 535 206 511 220 q 492 231 467 231 q 448 231 434 228 l 434 114 l 444 114 q 471 114 499 130 q 535 151 535 180 z m 422 224 l 404 218 l 404 113 l 422 113 z m 505 498 q 505 512 521 512 q 520 514 513 519 q 500 520 488 512 q 477 504 477 492 q 477 475 520 446 q 562 417 563 384 q 565 320 434 261 l 434 242 q 451 249 495 271 q 504 277 513 283 q 535 297 560 314 q 579 326 581 327 q 584 325 585 319 q 570 312 570 302 q 570 323 594 282 q 618 242 619 226 q 621 179 544 140 q 431 83 370 23 q 360 13 339 -16 q 333 -16 330 -15 q 329 -9 318 5 q 313 10 304 13 q 200 44 132 86 q 126 79 119 73 q 112 63 106 41 q 104 34 104 28 q 104 7 129 6 q 139 5 148 12 q 157 19 157 28 q 157 34 150 40 q 143 23 133 23 q 121 23 121 36 q 121 52 141 52 q 168 52 169 27 q 170 13 158 4 q 146 -6 130 -5 q 93 -3 93 39 q 93 63 124 93 q 32 165 32 274 q 32 370 108 448 q 152 493 266 557 l 270 556 q 113 408 114 324 q 116 233 202 172 q 284 114 379 114 l 391 114 l 391 211 l 379 206 q 337 189 337 160 q 337 139 355 139 q 361 139 362 142 q 361 143 356 146 q 352 150 352 155 q 351 167 362 167 q 375 167 377 153 q 377 145 370 138 q 363 132 357 132 q 330 132 328 167 q 327 193 391 223 q 390 261 390 309 l 390 577 q 391 576 376 576 q 342 575 343 481 q 343 427 344 290 q 344 267 349 259 q 355 247 375 245 l 225 160 q 218 162 217 166 q 241 196 250 213 q 258 230 258 265 q 259 379 258 433 q 257 481 230 481 q 228 481 220 479 q 243 498 347 575 l 130 576 q 57 576 57 532 q 57 493 101 494 q 116 494 130 505 q 145 516 144 529 q 143 546 131 547 q 132 548 132 534 q 132 520 112 520 q 98 520 98 535 q 98 561 125 560 q 154 558 154 528 q 154 506 124 483 q 123 482 77 453 q 25 420 21 420 q 17 420 15 426 l 29 438 l 12 458 q -1 476 -1 496 q -2 545 37 568 q 54 577 99 604 q 131 623 197 686 q 202 674 220 668 l 564 668 q 578 670 597 686 l 604 680 q 556 629 485 558 q 484 562 481 571 q 475 573 470 576 q 466 578 433 577 l 433 271 q 431 273 451 281 q 482 293 513 321 q 552 356 552 385 q 552 405 538 420 q 524 434 506 433 q 490 432 477 421 q 464 410 464 396 q 464 384 472 374 q 481 364 492 364 q 514 365 512 376 q 511 377 507 377 q 490 377 490 392 q 488 406 505 406 q 526 406 526 384 q 526 373 515 364 q 504 354 493 354 q 476 354 465 366 q 454 378 454 395 q 453 431 502 444 q 469 466 467 491 q 466 506 478 516 q 490 527 506 528 q 528 529 538 507 q 541 484 521 484 q 505 484 505 498 z m 636 167 q 597 142 597 112 l 597 104 q 579 115 566 115 q 559 115 543 110 q 527 104 524 100 q 587 96 585 44 q 584 25 570 11 q 557 -3 538 -2 q 499 0 501 31 q 502 59 523 57 q 541 56 540 41 q 540 31 532 28 q 525 25 516 30 l 511 28 q 513 8 541 7 q 552 7 564 18 q 575 30 576 41 q 577 61 561 74 q 545 88 523 88 q 461 88 459 30 q 459 15 460 8 q 430 19 427 18 q 408 15 381 -3 q 381 -3 380 -2 q 379 -2 378 -1 q 429 71 637 174 l 640 171 z m 203 236 q 203 251 217 252 q 237 254 237 228 q 237 220 228 211 q 218 202 208 202 q 170 202 173 241 q 174 257 183 277 q 186 283 164 303 q 148 318 136 326 l 190 365 q 211 380 210 409 q 209 431 191 431 q 188 431 183 426 q 185 423 188 420 q 191 418 191 412 q 191 400 179 400 q 164 400 164 415 q 164 436 192 439 q 203 439 211 429 q 219 419 219 409 q 219 383 205 366 q 199 362 247 324 q 247 326 214 295 q 180 264 181 241 q 182 208 207 210 q 228 211 228 228 l 228 231 q 222 225 217 225 q 203 225 203 236 z"},"P":{"x_min":0,"x_max":682,"ha":682,"o":"m 174 456 q 174 536 131 535 q 127 535 110 532 q 93 530 86 530 q 49 530 24 551 q -2 572 -2 607 q -2 635 20 658 q 41 680 68 680 q 96 680 117 662 q 138 645 138 617 q 138 601 122 584 q 107 568 90 568 q 75 571 75 571 q 67 571 58 585 q 49 599 49 608 q 49 618 60 629 q 72 640 80 640 q 90 640 101 630 q 112 619 114 607 q 121 608 121 620 q 121 639 104 651 q 87 663 67 663 l 56 663 q 38 663 26 643 q 15 623 15 604 q 15 575 39 559 q 60 546 91 546 q 93 546 98 547 q 104 548 105 548 q 147 548 197 604 q 218 627 267 696 l 275 695 q 271 670 271 663 q 272 634 271 578 l 270 513 q 269 510 269 498 q 271 497 272 498 q 292 546 302 559 q 320 585 356 601 q 435 635 465 688 q 471 690 474 689 q 467 674 480 662 q 569 582 604 507 q 633 445 633 366 q 633 300 612 250 q 594 206 549 151 q 478 65 374 -26 l 371 -23 l 375 -18 q 373 1 374 0 q 371 29 335 60 q 299 92 269 97 l 269 6 q 269 -11 277 -19 q 282 -22 302 -33 l 302 -39 q 280 -40 232 -93 q 184 -146 172 -158 q 129 -191 121 -191 q 119 -191 116 -186 q 114 -181 113 -181 q 148 -162 159 -127 q 163 -116 167 -65 q 173 5 173 31 l 138 4 q 124 -7 107 -29 q 88 -54 88 -67 q 88 -102 119 -102 q 143 -102 143 -79 q 143 -76 139 -72 q 135 -79 126 -86 q 118 -89 111 -84 q 104 -79 104 -71 q 104 -47 129 -48 q 156 -50 153 -83 q 152 -95 140 -104 q 128 -113 117 -113 q 75 -113 75 -71 q 75 -23 172 47 q 172 76 173 212 q 174 348 174 456 z m 75 98 q 75 44 111 44 q 141 44 141 68 q 141 80 135 84 q 131 65 114 65 q 101 65 101 80 q 101 102 128 102 q 137 102 144 92 q 152 81 152 69 q 152 33 108 32 q 62 30 62 94 q 62 126 89 172 q 64 212 23 230 q 89 262 89 297 q 89 326 23 368 q 113 427 113 469 q 113 498 88 499 q 75 503 73 491 q 97 486 97 472 q 97 450 79 453 q 56 457 56 485 q 56 510 89 510 q 104 510 114 498 q 125 485 125 467 q 125 453 110 424 q 110 410 135 387 q 151 373 161 364 q 100 306 100 296 q 100 283 129 256 q 153 234 163 230 q 133 219 104 175 q 75 131 75 98 z m 568 121 q 552 96 552 86 q 552 81 554 69 q 547 73 534 70 q 519 67 515 58 q 511 58 508 50 q 511 46 515 46 q 517 46 521 47 l 526 47 q 563 47 563 10 q 563 -4 553 -15 q 543 -26 529 -26 q 521 -26 512 -20 q 504 -13 504 -7 q 500 17 522 17 q 535 17 535 4 q 533 -3 529 -9 q 529 -16 535 -17 q 541 -17 547 -8 q 553 2 553 9 q 553 37 515 37 q 498 37 471 13 q 451 -5 431 -24 q 426 -12 426 -18 q 452 12 562 128 z m 351 570 q 347 569 333 561 l 333 437 q 339 435 351 429 z m 321 552 q 292 526 292 487 q 292 475 304 456 q 316 438 321 443 q 322 456 321 552 z m 549 260 l 549 286 q 549 353 507 449 q 489 491 444 530 q 399 570 365 571 l 365 426 q 379 422 396 424 q 415 426 430 440 q 445 453 445 471 q 445 481 436 492 q 426 503 415 503 q 410 503 403 499 l 403 495 q 419 488 419 478 q 419 460 404 460 q 382 460 382 487 q 382 498 392 506 q 401 513 412 513 q 457 513 457 465 q 457 403 389 380 q 366 372 364 374 l 364 183 q 363 173 363 167 q 363 162 364 160 q 408 88 459 88 q 483 88 523 152 q 531 164 540 204 q 549 243 549 260 z m 351 376 l 332 382 l 332 163 l 350 180 z m 320 387 q 284 404 273 466 q 273 458 271 428 q 269 397 269 375 l 269 111 q 276 113 286 122 q 293 128 303 138 q 304 139 310 145 q 315 151 320 156 z m 496 210 q 496 181 480 148 q 463 115 440 103 q 434 100 434 107 q 434 80 459 134 q 484 189 486 210 q 488 230 472 259 q 455 288 436 288 q 420 288 408 278 q 396 267 396 250 q 396 213 429 213 q 437 213 445 220 q 453 227 453 234 q 453 240 450 240 q 440 235 440 235 q 437 235 430 240 q 424 244 424 246 q 424 263 439 263 q 462 263 462 235 q 462 202 425 202 q 408 202 396 216 q 383 231 384 247 q 385 268 400 282 q 414 297 437 297 q 415 323 415 350 q 415 368 428 384 q 441 399 459 398 q 487 397 487 371 q 487 343 467 343 q 449 343 449 359 q 449 371 459 371 q 467 371 469 366 q 471 362 474 356 q 478 358 479 368 q 479 387 456 387 q 445 387 436 376 q 427 364 427 353 q 427 324 462 288 q 496 251 496 210 z"},"|":{"x_min":0,"x_max":182,"ha":182,"o":"m 74 0 l 74 674 l 118 674 l 118 0 z"},"t":{"x_min":0,"x_max":256,"ha":256,"o":"m 245 77 l 147 -9 q 114 26 76 45 q 53 56 7 77 q 17 79 34 80 q 34 80 40 82 q 57 90 60 115 q 60 122 61 155 q 63 228 61 408 l 10 408 l 10 433 l 61 433 q 63 481 61 503 q 57 549 6 557 l 7 559 q 59 565 171 691 l 177 687 l 156 636 q 143 581 143 550 l 142 435 l 225 435 l 225 410 l 144 410 l 144 108 q 207 63 210 63 q 216 63 237 88 z"},"M":{"x_min":0,"x_max":924,"ha":924,"o":"m 863 271 q 863 270 856 259 q 848 248 847 244 q 845 238 850 215 q 844 217 839 217 q 813 217 796 191 q 799 188 801 188 q 803 188 804 189 q 805 190 806 190 q 818 190 830 180 q 841 171 841 160 q 841 133 813 133 q 800 133 800 146 q 800 150 804 157 l 813 157 q 819 153 824 141 q 832 147 832 158 q 832 182 804 182 q 789 182 745 145 q 743 147 740 148 q 756 164 802 209 q 835 241 855 276 q 863 276 863 271 z m 878 423 q 878 353 834 287 q 800 237 707 148 q 725 140 758 117 q 765 113 786 98 q 807 83 808 83 q 812 83 848 120 l 853 111 q 835 92 745 -5 q 730 22 695 48 q 660 74 635 83 q 633 56 635 3 l 623 3 l 623 90 q 623 96 607 106 q 608 108 614 110 q 621 112 621 113 l 621 572 q 621 573 604 571 l 604 -1 l 591 1 l 591 332 l 526 332 l 526 134 q 526 120 566 110 q 566 109 565 104 q 526 80 502 41 q 496 28 481 -6 l 472 -6 q 463 28 453 43 q 432 75 394 105 l 394 112 q 396 114 416 116 q 437 118 437 163 l 437 331 q 430 332 370 332 l 370 -1 l 356 -1 l 357 586 q 352 585 342 579 l 343 -1 l 329 -2 l 329 568 q 332 569 327 569 q 324 569 284 535 l 285 124 q 297 88 311 54 q 299 46 284 35 q 269 24 256 11 q 227 -25 169 -96 q 104 -173 55 -173 q 36 -173 7 -160 q 5 -160 -2 -152 q -10 -144 -12 -144 q -14 -144 -22 -149 q -30 -154 -31 -154 q -36 -149 -36 -145 l 84 -31 q 91 -38 91 -39 q 76 -64 76 -72 q 76 -89 89 -101 q 102 -113 117 -113 q 174 -113 180 -5 q 181 18 183 66 l 185 472 q 185 547 149 547 q 140 547 120 542 q 100 538 90 538 q 58 538 34 552 q 1 571 1 607 q 1 635 18 656 q 36 676 62 676 q 121 676 121 620 q 121 602 107 590 q 93 577 77 577 q 63 577 52 586 q 40 595 40 610 q 40 620 52 630 q 63 639 71 639 q 90 639 94 617 q 93 611 94 596 q 111 610 111 624 q 111 641 98 652 q 86 663 70 663 q 44 663 28 648 q 11 632 11 610 q 11 612 16 592 q 21 573 42 562 q 63 551 84 551 l 95 551 q 137 551 195 594 q 250 635 270 676 q 281 681 281 684 l 281 552 q 282 551 284 551 q 355 605 452 690 q 468 670 490 651 q 508 636 570 607 q 567 604 551 597 q 527 587 527 568 l 527 542 q 526 539 528 539 l 723 686 q 722 687 722 669 q 722 657 736 649 q 878 564 878 423 z m 175 407 q 175 403 170 400 q 155 398 129 378 q 103 359 103 345 q 103 332 132 310 q 157 290 173 286 l 175 281 q 133 259 106 222 q 76 181 76 137 q 76 115 89 97 q 102 79 120 79 q 133 79 146 90 q 158 101 158 115 q 158 140 141 145 l 132 143 q 132 142 136 136 q 140 131 140 129 q 140 110 124 110 q 105 110 105 129 q 105 140 116 148 q 126 155 137 155 q 167 155 167 115 q 167 95 154 82 q 141 69 123 69 q 95 69 78 88 q 62 108 62 136 q 62 160 78 192 q 93 224 93 223 q 93 238 64 260 q 42 277 32 281 l 30 286 q 91 322 91 344 q 91 366 30 405 q 38 410 52 419 q 67 428 74 432 q 107 458 107 489 q 107 500 108 499 q 107 504 93 514 l 86 514 l 83 511 q 93 501 93 494 q 93 481 81 481 q 64 481 64 497 q 64 507 72 514 q 81 522 90 522 q 117 522 117 486 q 117 485 112 472 q 107 458 107 456 q 107 446 136 430 q 173 409 175 407 z m 781 364 q 781 487 708 543 q 675 568 654 569 l 635 570 l 634 160 l 638 159 q 675 175 704 218 q 734 260 734 299 q 734 324 723 346 q 710 372 687 372 q 646 372 646 325 q 646 316 656 306 q 666 295 675 295 q 682 295 690 303 q 697 311 697 319 q 696 319 691 318 q 686 317 684 317 q 671 317 671 328 q 671 342 685 342 q 705 342 705 322 q 705 309 696 298 q 686 286 672 286 q 656 286 647 304 q 639 319 639 332 q 639 380 693 381 q 656 418 656 456 q 656 495 697 495 q 712 495 723 484 q 734 474 734 459 q 734 449 726 440 q 717 430 706 430 q 681 430 681 449 q 681 465 694 465 q 705 465 705 454 q 705 447 697 441 l 709 438 q 726 449 726 459 q 726 487 694 487 q 664 487 664 449 q 664 427 704 380 q 744 334 744 302 q 744 267 727 235 q 700 183 639 147 l 639 136 q 639 119 638 120 q 650 124 672 138 q 724 171 754 237 q 781 297 781 364 z m 591 379 l 590 565 q 559 547 527 521 l 528 379 z m 437 509 q 437 523 430 566 q 429 570 416 580 q 407 587 398 593 q 385 604 383 605 q 374 605 370 595 l 370 379 q 418 380 437 379 z"},"g":{"x_min":0,"x_max":398,"ha":398,"o":"m 378 20 q 378 -21 350 -51 q 307 -98 156 -189 q 141 -175 110 -148 q 80 -121 58 -121 q 43 -121 35 -126 l 27 -116 q 57 -97 95 -66 q 145 -27 159 -16 q 187 4 209 4 q 225 4 238 -7 q 250 -18 250 -33 q 250 -45 238 -58 q 225 -70 212 -74 q 214 -64 214 -62 q 214 -31 175 -31 q 158 -31 146 -45 q 135 -59 135 -78 q 135 -93 160 -110 q 184 -126 200 -126 q 236 -126 273 -96 q 310 -67 310 -31 q 310 -5 282 30 q 253 66 253 94 q 253 93 251 103 q 170 34 127 0 q 80 42 55 55 q 52 57 15 73 l 15 80 q 24 82 40 86 q 56 89 56 102 l 56 279 q 56 345 30 356 q 30 356 9 363 l 9 371 q 18 375 53 382 q 82 388 121 413 q 160 438 178 462 q 183 471 193 480 q 297 398 373 398 l 373 386 q 332 366 332 342 l 332 110 q 332 134 355 86 q 378 37 378 20 z m 252 128 l 252 352 l 150 414 q 146 413 134 404 l 135 100 l 178 65 z"},"j":{"x_min":0,"x_max":218,"ha":218,"o":"m 140 70 q 161 51 189 13 q 200 -16 200 -47 q 200 -92 170 -137 q 150 -166 101 -217 q 92 -217 87 -212 q 139 -163 139 -104 q 139 4 44 31 q 35 34 24 39 q 63 56 62 80 q 64 127 64 192 q 64 257 62 340 q 66 386 42 386 q 29 386 8 368 l 3 377 l 103 481 l 188 394 q 166 395 153 378 q 140 362 140 340 q 139 201 140 70 z m 161 594 q 121 575 100 522 q 77 569 33 587 q 54 594 73 618 q 73 618 101 659 q 101 640 122 619 q 143 598 162 596 z"},"i":{"x_min":0,"x_max":232,"ha":232,"o":"m 161 594 q 121 575 100 522 q 77 569 33 587 q 54 594 73 618 q 73 618 101 659 q 101 640 122 619 q 143 598 162 596 z m 215 75 q 199 62 121 -15 q 82 29 73 38 q 55 56 19 80 q 54 79 67 116 l 67 331 q 67 380 47 380 q 33 380 8 358 l 3 367 l 103 471 l 188 384 q 162 385 154 376 q 145 366 145 339 l 145 138 q 145 111 156 92 q 168 72 186 72 q 197 72 211 80 z"},"y":{"x_min":0,"x_max":383,"ha":383,"o":"m 380 38 q 380 -29 300 -79 l 171 -160 l 153 -169 q 143 -121 86 -86 q 39 -57 12 -62 l 10 -57 l 111 28 q 44 92 8 95 q 3 92 1 94 l 1 102 q 29 103 39 114 q 49 124 49 152 q 49 267 48 358 q 42 377 40 381 q 33 392 17 392 q 11 390 -2 382 q -2 383 -6 386 q -10 390 -9 392 q 25 419 80 475 l 124 428 q 148 410 182 410 q 224 410 273 477 q 302 426 362 408 q 331 399 318 365 l 318 211 q 312 141 328 122 q 338 111 359 89 q 377 69 379 53 q 379 52 380 46 z m 241 357 q 241 399 182 399 q 128 399 128 336 l 128 182 q 128 175 129 157 q 131 134 131 121 q 169 88 178 88 q 184 88 240 135 q 240 238 241 357 z m 318 -4 q 318 22 296 41 q 277 57 259 72 q 245 86 242 113 q 217 98 115 5 q 123 -14 153 -46 q 212 -88 242 -88 q 265 -88 292 -58 q 318 -28 318 -4 z"},"@":{"x_min":0,"x_max":682,"ha":682,"o":""},".":{"x_min":0,"x_max":214,"ha":214,"o":"m 182 65 q 142 41 109 -14 q 83 26 79 30 q 63 49 35 62 q 88 97 113 138 q 136 87 182 65 z"},"p":{"x_min":0,"x_max":423,"ha":423,"o":"m 400 389 q 352 389 352 358 l 352 128 q 357 69 390 63 q 391 62 391 51 q 281 53 215 -28 q 200 -21 149 47 l 149 -39 q 149 -81 156 -94 q 170 -121 191 -125 l 191 -133 q 144 -137 99 -176 q 91 -183 64 -196 q 36 -208 27 -208 q 26 -198 27 -197 q 67 -184 67 -119 q 67 -54 66 3 q 19 -33 16 -54 q 14 -66 14 -74 q 14 -96 40 -107 q 41 -103 51 -103 q 52 -104 54 -106 q 57 -108 58 -109 q 43 -121 -21 -171 q -22 -162 -25 -161 q -15 -147 -15 -146 q -34 -121 -34 -96 q -34 -51 67 24 l 66 371 q 66 382 60 390 q 54 398 49 398 q 48 398 31 384 q 14 369 9 367 l 3 376 q 103 476 107 476 q 137 442 178 406 q 202 408 244 406 q 268 400 312 474 z m 272 301 q 272 339 271 346 q 267 371 251 380 q 238 386 209 386 q 157 386 152 344 l 152 90 l 184 121 l 261 33 q 264 36 272 42 z"},"X":{"x_min":0,"x_max":673,"ha":673,"o":"m 514 550 q 514 570 492 590 q 471 610 451 610 l 444 610 l 444 460 q 514 518 514 550 z m 430 610 l 413 608 l 413 430 l 430 451 z m 399 420 l 399 608 l 385 606 q 353 601 353 543 l 354 374 z m 433 430 l 414 412 l 414 369 l 433 369 z m 401 402 l 368 369 q 396 368 400 369 q 403 384 401 402 z m 436 105 l 435 312 l 418 313 l 417 112 q 425 108 436 105 z m 403 312 l 355 312 l 355 178 q 355 141 403 118 z m 515 424 q 515 448 538 448 q 561 448 561 424 q 561 403 536 402 q 519 401 508 414 q 496 426 496 441 q 496 465 512 480 q 528 495 552 495 q 574 495 589 475 q 604 455 604 432 q 604 406 543 344 q 482 281 482 238 q 482 183 539 183 q 560 183 573 200 q 586 217 583 236 q 575 231 572 231 q 548 231 548 256 q 548 280 572 280 q 600 280 600 238 q 600 212 583 190 q 566 168 541 168 q 466 168 466 238 q 466 256 474 280 q 482 304 491 312 l 452 313 l 452 105 q 509 121 536 121 q 568 121 590 104 q 611 87 611 58 q 611 33 592 13 q 573 -7 548 -7 q 532 -7 518 4 q 504 14 504 29 q 504 41 514 50 q 524 58 536 58 q 552 58 563 34 l 557 12 q 575 13 586 26 q 597 40 597 58 q 597 78 579 93 q 561 108 540 108 q 459 108 390 -8 q 357 20 283 60 q 258 74 208 100 q 245 106 254 166 q 257 186 257 261 l 140 153 q 72 90 72 35 q 72 1 97 -24 q 122 -48 157 -48 q 183 -48 203 -29 l 209 -34 q 181 -57 86 -139 q 30 -100 18 -82 q 8 -67 3 -22 q -7 68 257 276 l 258 316 l 178 316 q 138 316 94 289 q 45 259 45 222 q 45 201 57 185 q 69 169 87 169 q 102 169 116 184 q 129 198 129 213 q 129 242 103 242 q 98 242 90 234 q 107 232 107 218 q 107 201 88 201 q 70 201 69 218 q 68 235 79 248 q 90 260 107 257 q 118 255 130 241 q 142 227 142 217 q 142 186 122 170 q 103 153 72 156 q 53 158 40 176 q 28 195 28 217 q 28 255 108 327 q 188 399 188 434 q 188 452 176 464 q 164 477 145 477 q 125 477 112 463 q 100 449 100 428 q 108 423 114 414 q 117 428 134 428 q 157 428 157 406 q 157 384 134 384 q 124 384 112 390 q 101 396 100 402 q 87 415 86 433 q 84 457 103 474 q 122 491 147 491 q 165 491 183 472 q 201 453 201 435 q 201 427 195 409 q 189 391 189 386 q 189 369 220 369 q 252 369 256 370 l 256 487 q 256 562 203 562 q 188 562 150 547 q 113 532 91 531 q 54 530 30 550 q 6 570 4 606 q 3 634 22 655 q 40 676 69 676 q 96 676 114 660 q 133 644 133 618 q 133 603 122 590 q 111 577 96 577 q 64 577 64 604 q 64 621 91 631 l 115 622 l 116 627 q 116 639 100 650 q 85 662 72 662 q 51 662 35 645 q 19 628 19 606 q 19 578 41 562 q 63 545 93 545 q 141 545 189 595 q 212 619 257 685 q 310 623 402 623 q 490 623 534 694 q 571 631 643 629 q 605 591 446 439 l 447 369 q 458 368 468 368 q 586 368 586 435 q 586 480 545 480 q 529 480 518 470 q 506 459 506 443 q 506 432 515 423 z m 244 200 q 220 178 172 132 q 118 78 116 52 q 113 8 155 7 q 167 7 177 15 q 187 23 187 34 q 187 37 184 40 q 176 35 171 32 q 157 32 157 49 q 158 65 178 65 q 186 65 193 56 q 200 46 200 37 q 200 19 188 6 q 175 -6 157 -7 q 132 -9 116 10 q 99 29 103 59 q 106 87 164 143 q 191 168 243 217 z"},"*":{"x_min":0,"x_max":442,"ha":442,"o":"m 180 475 q 142 453 129 437 q 111 414 93 391 q 72 368 50 368 q 31 368 18 381 q 5 394 5 413 q 5 462 89 468 q 125 471 168 496 q 123 521 99 524 q 48 529 38 533 q 5 546 5 580 q 5 599 18 612 q 31 624 50 624 q 74 624 90 608 q 97 601 130 561 q 152 534 180 518 l 180 536 q 180 559 162 600 q 145 642 145 657 q 145 678 158 693 q 172 708 192 708 q 212 708 226 692 q 239 677 239 656 q 239 643 219 600 q 204 567 204 518 q 235 535 253 554 q 266 567 291 604 q 311 624 335 624 q 354 624 367 612 q 380 599 380 580 q 380 548 351 535 q 336 528 290 521 q 250 516 217 496 q 261 472 285 469 q 338 463 347 459 q 380 445 380 413 q 380 370 337 370 q 317 370 297 387 q 285 397 256 431 q 235 457 204 475 l 204 457 q 204 434 221 392 q 238 350 238 337 q 238 316 225 300 q 212 285 192 285 q 172 285 158 300 q 145 315 145 336 q 145 345 162 394 q 180 443 180 475 z"},"Y":{"x_min":0,"x_max":664,"ha":664,"o":"m 172 450 q 172 469 141 434 q 110 400 110 391 q 110 366 168 335 l 169 333 q 144 322 114 286 q 84 250 84 226 q 84 187 117 190 q 130 191 137 209 l 135 220 q 128 217 123 216 q 110 216 110 231 q 110 244 125 244 q 133 245 140 238 q 148 232 148 222 q 148 179 115 178 q 75 176 75 224 q 75 247 99 283 q 97 301 79 317 q 61 333 42 339 q 40 341 42 341 q 62 346 79 359 q 101 374 101 391 q 101 403 76 425 q 51 447 39 447 l 39 449 q 62 457 83 474 q 108 495 108 515 l 108 529 q 107 535 95 537 q 93 536 91 534 q 89 531 87 530 q 88 528 91 528 q 94 527 94 525 q 94 513 80 513 q 75 513 71 519 q 67 525 68 528 q 73 548 94 548 q 103 548 110 540 q 117 531 117 521 q 117 518 115 506 q 114 499 115 495 q 118 484 145 467 z m 545 2 q 538 10 522 31 q 493 71 493 144 q 450 114 373 63 l 373 27 q 385 47 397 54 q 406 59 417 60 q 473 68 473 14 q 473 -30 433 -30 q 421 -30 410 -20 q 399 -10 399 2 q 399 8 406 16 q 412 23 418 23 q 433 23 433 8 q 433 2 424 -3 q 421 -4 413 -6 q 416 -22 435 -22 q 464 -22 464 16 q 464 28 453 40 q 442 51 429 51 q 372 51 372 -23 l 372 -84 l 404 -104 q 545 -2 545 2 z m 362 61 l 345 47 l 345 -69 l 362 -80 z m 333 40 l 244 -23 l 333 -64 z m 446 297 q 446 288 438 280 q 429 273 420 273 q 407 273 398 285 q 390 297 391 314 q 393 355 430 355 q 435 355 441 353 q 410 400 409 401 q 392 430 392 452 q 392 505 442 505 q 453 505 464 494 q 475 482 476 472 q 479 432 448 432 q 429 432 429 448 q 429 463 441 463 q 451 463 451 453 q 451 448 446 443 q 449 440 451 440 q 468 440 468 468 q 468 489 441 492 q 403 496 403 454 q 403 431 443 375 q 483 319 483 282 q 483 241 451 200 q 419 160 378 142 l 378 90 l 493 169 l 493 533 q 493 591 459 591 q 452 591 436 582 q 421 572 420 572 q 415 572 415 583 l 531 689 q 533 689 541 675 q 549 661 551 659 q 581 627 605 615 q 617 610 639 598 q 626 596 608 589 q 591 582 591 539 l 590 197 q 590 163 598 131 q 615 64 655 60 l 644 53 q 560 -4 493 -54 q 466 -74 426 -108 q 380 -147 345 -185 q 308 -151 256 -124 q 197 -94 154 -94 q 129 -94 113 -107 q 97 -120 97 -140 q 97 -169 127 -169 q 134 -169 142 -164 q 124 -151 124 -146 q 124 -123 148 -123 q 175 -123 175 -149 q 175 -161 158 -171 q 142 -181 129 -181 q 83 -181 83 -139 q 83 -99 174 -56 q 218 -26 256 8 q 251 16 239 32 q 219 56 174 78 q 129 100 100 99 q 82 98 67 84 q 52 69 52 51 q 52 20 81 20 q 88 20 94 32 q 94 32 84 40 q 74 48 74 54 q 74 73 96 73 q 120 73 120 48 q 120 32 108 20 q 95 9 79 9 q 36 9 38 55 q 39 89 88 118 q 168 165 176 221 q 180 250 180 267 l 180 517 q 173 568 145 568 q 138 568 114 564 q 90 561 82 561 q 60 561 37 572 q 0 589 1 629 q 1 651 18 670 q 35 689 58 689 q 81 689 98 676 q 114 662 114 640 q 114 600 74 600 q 62 600 52 610 q 43 619 43 631 q 43 640 50 648 q 58 655 65 655 q 74 655 82 646 q 89 638 88 629 q 87 617 86 618 q 102 617 102 641 q 102 654 91 665 q 80 676 67 676 q 15 676 15 628 q 15 603 36 588 q 57 573 83 573 q 115 573 160 592 q 185 602 201 615 q 263 664 271 685 q 271 692 271 650 q 270 600 270 531 q 269 366 269 326 q 269 300 270 296 q 274 283 291 276 q 304 271 305 269 q 300 265 246 228 q 177 181 166 171 q 200 163 260 126 q 320 89 332 75 q 331 82 332 125 q 301 145 219 193 q 220 197 224 197 q 238 199 331 137 q 332 248 332 660 l 345 662 l 345 66 l 363 81 l 362 662 l 378 662 l 378 156 q 419 174 444 208 q 469 242 469 276 q 469 344 430 344 q 405 344 399 310 q 395 288 417 281 q 426 278 434 289 q 430 290 425 291 q 417 294 417 301 q 417 313 429 313 q 446 313 446 297 z"},"c":{"x_min":0,"x_max":329,"ha":329,"o":"m 303 380 q 264 360 256 325 q 255 324 253 251 l 237 251 l 239 291 q 241 326 215 365 q 186 408 149 404 q 131 402 131 397 l 131 111 q 166 96 205 52 q 231 72 274 112 l 286 105 l 146 -15 q 118 7 75 40 q 36 68 -3 82 q 13 89 26 93 q 49 104 49 140 l 48 339 q 48 357 27 369 q 11 378 2 384 q 68 400 114 414 q 141 422 175 441 l 227 470 q 252 426 303 384 z"},"!":{"x_min":0,"x_max":262,"ha":262,"o":"m 103 188 l 74 463 q 64 553 52 572 q 49 576 32 592 q 16 608 16 609 q 16 622 24 622 q 31 622 44 618 q 58 615 65 615 q 108 615 146 636 q 149 638 201 662 l 213 648 q 199 641 173 625 q 156 614 152 586 q 149 559 147 533 q 137 424 120 188 z m 111 125 q 128 69 176 60 q 132 34 110 -8 q 91 31 45 58 q 95 82 111 125 z"},"/":{"x_min":0,"x_max":371,"ha":371,"o":"m 368 679 l 39 3 l 5 4 l 336 682 z"},"[":{"x_min":0,"x_max":203,"ha":203,"o":"m 79 -52 l 149 -53 l 149 -103 l 8 -104 l 8 777 l 149 777 l 149 727 l 84 727 q 77 724 80 724 z"},"6":{"x_min":0,"x_max":463,"ha":463,"o":"m 415 259 q 415 195 379 143 q 356 110 296 59 q 236 8 209 -22 q 185 -3 139 30 q 63 83 35 90 q 35 93 54 100 q 73 106 77 110 q 81 114 81 177 l 81 415 q 81 432 66 446 q 50 460 31 462 q 29 466 33 470 q 64 470 107 503 q 134 524 188 565 q 235 599 284 599 q 333 599 364 550 q 364 547 367 547 q 370 549 391 564 l 401 558 l 291 453 l 284 458 q 286 461 297 475 q 304 484 304 494 q 304 515 274 538 q 243 562 221 562 q 178 562 167 513 q 163 495 163 431 l 163 121 q 190 101 209 88 q 239 67 259 67 q 296 67 318 115 q 335 152 335 195 q 335 245 316 283 q 292 330 247 330 q 228 330 220 324 q 204 312 198 310 l 198 318 l 323 434 q 322 437 322 415 q 322 396 350 376 q 385 351 391 341 q 415 303 415 259 z"},"r":{"x_min":0,"x_max":417,"ha":417,"o":"m 377 216 l 349 188 q 334 173 320 161 q 286 189 286 262 q 286 271 287 296 q 288 321 288 326 q 288 400 202 400 q 170 400 160 382 q 154 372 154 336 l 154 117 q 222 70 231 70 q 238 73 256 87 l 281 106 l 287 95 q 276 85 231 38 q 195 0 189 -4 q 183 -4 161 12 l 131 34 q 88 60 27 90 l 55 90 q 75 90 75 141 l 75 249 q 75 357 76 333 q 73 400 51 400 q 47 400 13 380 l 5 393 q 48 426 82 461 q 99 479 102 479 q 74 479 130 447 q 185 415 204 415 q 236 415 260 439 q 274 453 296 490 q 317 463 348 431 q 352 429 364 423 q 377 417 380 415 l 380 407 q 349 400 329 379 q 306 356 306 326 l 306 260 q 306 244 320 228 q 335 213 351 213 q 353 213 377 216 z"},"2":{"x_min":0,"x_max":460,"ha":460,"o":"m 433 253 q 433 236 413 222 q 382 200 381 199 q 365 182 365 133 q 365 83 378 21 q 387 -22 387 -14 q 386 -17 384 -22 q 353 3 327 3 l 67 3 q 50 3 36 -15 l 27 -15 l 27 -8 q 27 3 47 38 q 91 136 204 219 q 262 261 281 282 q 319 323 319 371 q 319 426 266 472 q 213 519 157 519 q 133 519 113 502 q 93 484 93 463 q 93 425 130 392 q 168 359 207 359 q 235 359 245 372 l 256 372 q 256 362 217 338 q 183 311 112 250 l 106 255 q 120 277 120 280 q 120 288 98 306 q 68 330 56 345 q 34 373 34 407 q 34 465 89 510 q 110 520 156 556 q 201 592 216 610 l 221 609 q 234 591 289 565 q 348 537 367 517 q 406 476 406 404 q 406 360 355 307 q 316 266 266 236 q 208 201 147 140 q 132 125 130 117 q 129 101 124 92 q 128 90 223 91 q 320 92 327 93 q 338 101 344 148 q 351 208 359 230 q 374 273 408 274 q 417 274 425 268 q 433 261 433 253 z"},"{":{"x_min":0,"x_max":847,"ha":847,"o":"m 531 595 q 529 595 524 594 q 519 593 518 593 l 478 592 q 482 596 515 606 q 544 614 553 632 l 568 629 l 568 606 q 555 595 531 595 z m 796 279 q 775 294 744 327 l 729 305 l 715 305 q 704 317 685 334 q 682 334 668 332 q 654 329 649 329 l 640 305 q 612 302 590 272 q 585 286 581 313 q 578 334 571 342 l 542 308 l 531 308 q 523 319 516 319 q 457 299 451 296 q 416 280 395 257 l 395 242 l 399 237 q 408 237 424 240 q 441 243 450 243 q 514 243 585 200 q 665 152 663 92 l 647 88 q 619 99 593 99 q 585 99 563 77 q 590 63 636 48 q 651 58 685 77 q 696 79 709 58 q 722 37 722 25 q 722 20 719 14 q 716 7 716 5 q 716 -1 719 -11 l 698 -23 l 673 -12 q 654 -27 635 -27 q 629 -27 627 -26 q 603 -2 590 -2 q 590 -2 572 -5 q 553 -8 539 -8 q 525 -8 496 -12 q 467 -15 452 -15 q 428 -15 428 25 q 428 50 444 76 q 460 101 461 110 q 454 123 432 155 q 415 131 410 86 q 405 38 397 24 q 381 -4 325 -15 q 311 -7 290 18 q 273 39 239 51 l 211 35 l 236 24 q 239 16 270 -15 q 244 -32 211 -59 q 179 -31 175 -30 q 164 -25 130 -26 l 130 8 q 130 11 128 23 q 126 35 125 44 l 104 52 l 93 75 q 97 81 129 103 q 126 118 134 147 l 101 172 l 101 184 q 136 195 130 195 q 139 195 165 192 q 187 190 200 191 q 213 185 232 166 q 254 143 263 137 l 292 132 q 301 156 303 158 q 303 202 272 224 q 259 234 209 252 q 168 267 156 290 q 145 314 123 341 l 123 353 q 123 355 134 357 q 150 357 171 338 l 204 308 q 220 367 218 395 l 215 432 l 191 459 q 155 439 152 409 q 133 428 133 452 q 133 468 142 489 q 140 492 128 499 q 72 473 72 436 q 72 422 78 404 l 68 404 q 52 404 41 428 q 31 449 31 467 q 31 487 61 533 q 9 582 9 614 q 9 644 30 666 q 50 687 79 687 q 101 687 124 665 q 147 643 199 643 l 214 646 q 226 660 226 694 q 252 683 252 656 q 252 613 215 613 q 205 613 180 624 q 154 635 143 635 q 131 635 120 622 q 109 610 109 597 q 109 581 141 551 l 146 555 l 146 583 q 149 586 160 610 l 177 606 l 167 580 q 178 561 225 514 q 259 481 259 430 q 259 415 249 384 q 239 352 241 337 q 264 352 281 357 l 307 345 l 307 334 q 270 333 270 292 q 270 255 299 238 q 327 274 388 360 l 380 367 q 366 361 331 352 l 314 364 q 329 376 351 404 l 333 415 q 329 421 328 428 l 347 478 l 343 481 l 338 481 q 322 470 318 463 l 308 473 l 296 474 q 288 496 283 540 q 271 548 270 560 q 273 581 283 599 l 273 626 q 282 640 305 672 l 296 709 q 296 720 310 738 q 324 755 325 761 q 337 749 364 728 l 380 735 q 387 733 391 729 q 450 734 520 684 l 508 621 l 449 599 q 469 573 497 573 q 502 573 512 575 q 519 568 517 562 q 502 544 492 540 q 515 536 569 536 q 626 536 638 566 q 641 574 641 644 q 641 658 653 658 q 656 658 664 656 q 673 654 674 654 l 686 674 l 704 680 q 720 666 755 640 l 747 606 q 724 589 714 559 l 683 540 l 678 522 q 692 493 711 435 q 704 419 693 411 q 692 400 708 394 q 729 386 729 386 l 741 379 q 753 382 803 389 l 804 352 l 803 286 z m 432 696 q 424 696 411 683 q 439 664 446 664 q 457 664 463 674 q 447 696 432 696 z m 79 679 q 65 679 54 664 q 42 648 42 632 q 42 623 56 607 q 69 591 78 588 l 78 597 q 78 623 93 634 q 118 652 123 658 q 120 661 102 670 q 83 679 79 679 z"},"9":{"x_min":0,"x_max":463,"ha":463,"o":"m 417 523 q 416 522 391 511 q 373 503 373 485 l 372 177 q 370 171 370 167 q 370 138 409 136 q 411 135 412 127 q 370 120 297 55 q 228 -6 188 -6 q 123 -6 67 56 q 59 53 37 45 l 36 53 q 113 108 155 153 l 163 150 q 151 134 143 119 q 139 89 172 65 q 202 42 233 42 q 293 42 293 121 l 293 410 q 293 452 286 465 q 273 490 247 506 q 221 523 194 523 l 171 523 q 153 520 133 502 q 102 475 102 425 q 102 381 144 343 q 185 305 230 305 q 239 305 267 319 l 271 311 q 201 256 150 201 l 141 208 q 157 219 152 223 q 138 235 106 262 q 54 310 54 384 q 54 464 118 516 q 122 519 248 613 q 330 531 417 523 z"}," ":{"x_min":0,"x_max":173,"ha":173,"o":""},"I":{"x_min":0,"x_max":538,"ha":538,"o":"m 531 672 q 507 648 451 609 q 435 598 435 562 l 435 199 q 435 171 451 163 q 456 161 492 155 l 490 148 q 471 141 436 122 q 328 64 269 21 q 264 17 244 0 q 223 -18 222 -18 q 216 -18 207 0 q 136 74 63 74 q 20 74 20 40 q 20 16 44 11 l 44 20 q 43 23 43 28 q 43 47 67 47 q 76 47 84 39 q 92 31 92 22 q 92 9 81 0 q 70 -10 57 -10 q 41 -10 24 5 q 7 20 7 35 q 4 38 4 44 q 4 52 13 66 q 22 80 29 84 q 91 122 184 177 l 186 173 q 186 173 180 162 q 173 151 173 144 q 173 127 224 96 q 276 66 296 66 q 345 66 345 142 q 345 196 344 305 q 343 414 343 468 q 343 483 336 490 q 332 494 310 497 l 307 501 l 425 593 l 122 593 q 121 592 109 587 l 94 581 q 79 575 79 546 q 79 499 153 499 q 173 499 187 510 q 201 521 201 538 q 201 548 197 552 q 184 534 176 534 q 161 534 161 549 q 161 567 179 567 q 209 567 209 537 q 209 511 172 484 q 150 468 105 435 q 68 406 68 368 q 68 332 91 309 q 114 286 150 286 q 196 286 196 330 q 196 350 187 366 q 177 387 159 387 q 124 387 124 361 q 124 361 129 346 l 130 346 l 133 347 q 133 360 153 360 q 169 360 169 335 q 169 315 145 315 q 133 315 123 329 q 113 343 113 358 q 113 376 128 387 q 142 398 163 398 q 172 398 186 387 q 199 376 202 367 q 206 353 206 328 q 206 310 192 294 q 179 279 161 275 l 128 272 q 159 234 159 219 q 159 197 144 180 q 130 164 109 164 q 94 164 82 176 q 70 189 70 205 q 70 234 103 234 q 110 234 116 225 l 116 212 q 109 205 102 205 q 97 205 87 218 q 81 214 81 206 q 81 177 110 177 q 125 177 136 188 q 148 199 148 214 q 148 236 100 286 q 51 335 51 373 q 51 387 58 406 q 66 425 74 428 q 19 455 19 506 q 19 527 40 558 q 60 590 80 600 q 180 649 242 700 q 255 672 276 672 z m 497 113 q 488 108 478 102 q 469 96 465 86 q 466 81 466 78 q 466 70 459 70 q 457 70 450 73 q 444 76 442 76 q 417 76 411 65 q 447 50 447 24 q 447 12 438 2 q 428 -7 416 -7 q 395 -7 395 14 q 395 29 406 29 q 421 29 421 20 q 421 14 417 5 l 418 4 q 440 4 440 25 q 440 37 430 46 q 419 55 406 55 q 385 55 349 31 q 301 -1 293 -5 l 291 -2 l 291 6 l 489 120 l 497 120 z m 246 156 q 246 107 278 107 q 305 107 305 132 q 305 137 299 143 q 294 126 281 126 q 269 126 269 139 q 269 160 293 160 q 315 160 315 129 q 315 94 276 94 q 255 94 243 116 q 233 134 233 157 q 233 188 258 222 q 235 258 199 274 q 215 283 236 306 q 256 328 256 343 q 256 370 198 409 q 279 459 279 499 q 279 527 255 527 q 244 527 244 519 q 265 518 265 503 q 265 485 254 485 q 228 485 228 514 q 228 539 259 539 q 273 539 282 526 q 291 514 291 498 q 291 485 277 459 q 277 446 301 426 l 326 405 q 268 352 268 344 q 268 332 292 306 q 315 281 328 275 q 300 265 273 226 q 246 186 246 156 z"},"H":{"x_min":0,"x_max":620,"ha":620,"o":"m 591 565 q 571 550 547 526 q 581 519 581 482 q 581 471 570 460 q 560 450 550 450 q 522 450 522 474 q 522 491 536 491 q 549 491 549 480 q 549 473 532 467 q 537 458 544 458 l 551 458 q 560 458 568 466 q 575 474 575 480 q 575 495 566 506 q 556 517 542 517 q 535 517 518 509 q 502 501 496 493 l 488 493 q 500 505 584 565 z m 579 160 q 579 159 569 146 q 559 133 557 129 l 557 97 q 521 94 492 63 q 494 56 501 57 l 514 57 q 549 46 549 17 q 549 4 540 -10 q 530 -25 517 -25 q 482 -25 482 5 q 482 23 501 23 q 514 23 514 10 q 514 4 494 -4 q 497 -12 501 -13 l 513 -13 q 541 -13 541 17 q 541 50 497 50 q 478 50 456 22 q 433 -6 433 -26 q 433 -43 460 -56 q 455 -61 454 -61 q 444 -61 436 -48 q 427 -36 427 -25 q 427 7 499 85 q 521 107 576 165 q 579 165 579 160 z m 597 301 q 597 278 594 263 q 584 213 536 159 q 508 130 452 71 q 387 1 387 -30 q 387 -51 402 -68 q 417 -84 438 -84 q 450 -84 475 -66 q 479 -66 484 -71 l 362 -179 q 359 -178 359 -173 q 363 -168 367 -162 q 318 -141 318 -96 q 318 -61 366 -6 q 408 42 456 99 q 504 168 504 239 q 504 362 400 400 q 381 407 366 410 q 357 412 350 413 q 348 413 349 413 q 344 411 344 401 l 348 196 q 348 159 349 92 q 350 90 352 84 q 448 135 448 181 q 448 226 424 237 q 408 244 399 244 q 384 244 374 234 q 363 225 363 211 q 363 205 367 196 q 371 187 376 187 l 388 187 l 391 190 q 381 200 381 204 q 381 218 397 218 q 413 218 413 200 q 413 192 405 184 q 397 177 388 177 q 356 177 356 214 q 356 231 370 242 q 384 253 406 250 q 409 251 411 253 q 365 290 365 327 q 365 342 380 354 q 396 367 411 367 q 425 367 436 354 q 446 341 446 327 q 446 319 437 311 q 428 303 421 303 q 403 303 403 320 q 403 333 415 333 q 423 333 429 319 q 435 321 435 330 q 435 357 406 357 q 394 357 384 346 q 373 335 373 325 q 373 300 414 260 q 456 221 456 187 q 456 131 343 66 q 278 29 259 -11 l 252 -11 q 231 18 195 37 q 159 56 129 56 q 93 56 93 24 q 93 17 111 1 q 115 1 118 4 q 114 8 114 17 q 114 38 132 38 q 135 38 158 21 q 159 5 146 -4 q 134 -13 120 -13 q 102 -13 90 2 q 81 11 81 31 q 81 52 124 85 q 168 118 168 146 l 166 471 q 166 519 131 519 q 124 519 110 517 q 97 515 90 515 q 63 515 39 528 q 12 542 5 566 q 0 584 0 594 q 0 599 4 603 q 8 626 28 642 q 47 657 71 657 q 75 657 93 654 q 116 647 125 632 q 131 622 138 611 q 136 609 133 595 q 132 578 116 566 q 101 555 85 555 q 73 555 63 564 q 53 573 53 585 q 53 614 82 614 q 102 614 109 584 q 120 589 120 603 q 120 642 71 642 q 17 642 17 591 q 17 529 94 529 q 178 529 369 676 q 377 679 380 679 q 385 679 386 678 q 405 654 456 620 q 508 586 533 586 q 556 586 572 603 q 583 617 583 625 q 583 640 574 650 q 564 661 551 661 q 542 661 537 655 q 555 637 555 630 q 555 622 546 615 q 536 608 528 608 q 516 608 509 621 q 504 630 504 638 q 504 673 550 673 q 568 673 580 660 q 593 648 593 631 q 593 612 586 602 q 569 578 510 539 q 492 526 443 492 q 456 481 471 475 q 568 435 590 358 q 597 333 597 301 z m 164 228 q 118 193 115 189 q 93 168 93 144 q 93 132 102 121 q 110 110 121 110 q 128 110 142 124 q 142 129 128 129 q 120 137 120 145 q 120 153 134 155 q 140 155 146 148 q 152 142 152 138 q 152 127 139 109 q 133 100 119 100 q 100 100 92 121 q 85 139 89 158 q 95 175 93 180 q 89 190 65 209 q 37 231 31 237 q 93 266 93 294 q 93 309 66 330 q 39 352 27 356 l 27 360 q 42 367 63 386 q 70 388 82 402 q 95 416 99 427 q 99 435 100 439 q 104 456 104 453 q 104 491 72 491 q 53 491 53 472 q 55 471 59 472 q 63 473 67 474 q 73 474 81 466 l 81 453 q 77 444 66 444 q 55 444 49 455 q 43 463 43 471 q 43 485 56 492 q 66 499 75 499 q 112 499 112 454 q 112 449 108 434 q 104 419 104 414 q 104 407 129 385 q 151 366 162 360 q 161 359 129 329 q 106 308 106 294 q 106 280 130 261 q 142 253 164 235 z m 446 514 q 446 530 372 576 q 358 585 349 590 l 340 590 l 340 498 q 340 496 345 479 q 391 516 391 534 q 391 553 373 553 q 368 553 363 548 q 369 548 375 540 l 375 532 q 370 527 364 527 q 350 527 350 542 q 350 561 374 561 q 401 561 401 532 q 401 518 372 491 q 342 464 342 455 q 342 447 345 444 q 446 503 446 514 z m 330 443 l 328 582 q 328 604 315 604 l 308 604 l 314 424 q 328 427 330 443 z m 300 416 l 300 502 q 300 570 293 602 l 284 602 q 274 599 264 582 q 253 565 253 550 l 253 392 l 263 392 q 281 402 300 416 z m 336 97 q 336 124 331 231 q 327 314 331 364 q 331 368 330 379 l 330 396 q 331 404 336 409 q 326 409 314 407 l 318 75 q 318 68 325 68 q 336 74 336 97 z m 306 72 l 306 96 q 306 103 272 117 l 229 135 q 225 138 225 139 l 238 141 q 247 137 274 125 q 297 114 298 114 q 302 114 303 117 l 303 397 l 290 397 q 255 378 255 357 q 255 342 256 320 q 257 297 257 289 l 257 249 q 257 221 264 204 q 266 200 277 198 q 288 195 290 191 l 185 121 q 197 118 226 108 q 231 106 265 88 q 296 72 299 72 z"},"4":{"x_min":0,"x_max":463,"ha":463,"o":"m 409 115 l 399 115 q 396 142 392 149 q 385 158 362 158 q 339 158 338 157 l 337 80 q 337 70 353 63 q 362 61 378 55 l 375 48 q 323 44 296 -32 l 288 -32 q 279 20 206 54 q 253 66 253 106 q 253 110 252 124 q 251 139 251 144 l 251 159 l 117 160 q 92 160 80 153 q 76 150 67 144 q 58 137 53 133 l 43 144 q 64 186 104 272 q 138 347 138 406 q 138 512 38 515 q 47 524 83 562 q 115 597 123 602 q 131 602 152 584 q 170 569 177 559 q 198 529 198 503 q 198 485 192 465 q 186 445 147 339 l 107 231 q 151 230 254 231 l 254 415 q 254 460 251 469 q 245 488 224 495 q 306 543 331 600 l 338 600 l 338 236 q 339 233 346 235 q 354 237 356 236 q 359 235 366 235 q 384 235 391 254 q 393 260 401 305 l 409 305 z"},"~":{"x_min":0,"x_max":380,"ha":380,"o":"m 32 729 q 39 766 77 789 q 111 810 152 810 q 167 810 198 796 q 230 782 247 782 q 294 782 332 807 q 292 725 205 725 q 189 725 160 738 q 132 752 118 752 q 55 752 32 729 z"},"D":{"x_min":0,"x_max":589,"ha":589,"o":"m 572 172 q 462 114 246 -6 l 242 2 q 242 3 243 6 l 243 10 q 243 35 174 70 q 109 103 79 103 q 57 103 40 90 q 22 77 22 57 q 22 25 54 25 q 63 25 70 28 q 67 31 58 36 q 50 42 50 56 q 50 81 76 81 q 88 81 98 71 q 108 61 108 50 q 108 33 92 21 q 77 9 57 9 q 34 9 18 28 q 3 46 3 72 q 3 122 40 152 q 75 179 126 179 q 139 179 146 178 l 146 456 q 146 481 111 481 l 115 490 q 167 519 230 558 q 216 558 189 556 q 162 554 148 554 q 109 554 78 564 q 60 570 21 601 q 18 601 -2 586 q -3 590 -7 600 q 69 655 103 684 q 105 684 111 674 q 117 663 118 662 q 132 648 163 648 q 202 648 277 664 q 352 680 391 680 q 450 680 492 643 q 534 606 534 548 l 534 216 q 534 199 546 188 q 552 185 572 172 z m 444 532 q 444 593 373 593 q 365 593 330 582 q 329 557 329 539 q 329 522 330 514 q 334 519 340 528 q 347 536 350 540 q 360 550 381 550 q 399 550 414 537 q 428 524 428 506 q 428 468 396 468 q 386 468 377 476 q 368 485 368 495 q 368 509 382 509 q 394 509 394 498 q 394 488 384 481 q 392 479 393 479 q 416 479 416 504 q 416 519 404 529 q 393 539 378 539 q 359 539 345 516 q 331 492 331 471 l 330 280 q 334 286 384 333 q 419 366 419 395 q 419 437 381 437 q 372 437 363 428 q 354 419 354 410 q 354 389 372 389 q 368 393 368 401 q 368 413 382 413 q 396 413 396 401 q 396 378 372 378 q 344 378 344 412 q 344 427 358 438 q 371 448 389 448 q 402 448 416 434 q 430 420 430 406 q 430 367 412 344 q 405 336 374 311 q 348 291 341 273 q 370 282 372 284 q 395 284 414 270 q 432 257 432 236 q 432 172 381 172 q 346 172 346 206 q 346 233 368 233 q 382 233 382 221 q 382 207 367 207 q 361 207 357 211 q 355 205 355 203 q 355 185 382 185 q 422 185 422 224 q 422 245 406 259 q 390 273 368 273 q 330 273 330 232 l 330 94 q 351 87 359 87 q 410 87 429 117 q 444 141 444 194 z m 318 580 q 313 579 298 574 l 298 108 q 301 104 318 96 z m 287 113 l 287 150 l 218 183 l 228 192 l 286 162 l 287 572 q 256 564 246 550 q 235 535 235 502 q 235 493 236 454 q 236 415 236 386 l 236 270 q 236 238 266 238 l 266 230 l 166 174 q 193 170 229 148 z m 497 5 q 481 5 470 16 q 458 26 458 42 q 458 72 490 72 q 508 72 508 53 q 508 48 502 42 q 497 37 493 37 q 483 37 474 52 q 470 48 470 40 q 470 15 497 15 q 512 15 523 25 q 534 35 534 50 q 534 80 496 86 q 474 90 446 71 q 419 52 419 30 q 419 19 422 10 q 421 7 419 7 q 399 24 384 24 q 372 24 328 0 q 324 3 324 8 q 328 12 346 22 q 364 33 376 38 q 407 54 541 133 q 542 132 544 126 q 530 114 504 96 q 544 90 544 52 q 544 31 530 18 q 517 5 497 5 z m 76 275 q 62 256 59 251 q 53 242 53 227 q 53 215 62 204 q 70 194 82 194 q 92 194 97 199 q 97 201 96 203 q 87 202 79 210 q 71 219 74 227 q 83 236 92 236 q 115 236 115 210 q 115 190 86 184 q 67 180 54 197 q 41 214 41 234 q 41 252 58 270 q 60 272 60 275 q 60 289 16 322 q 18 326 44 347 q 66 365 66 380 q 66 392 14 434 q 17 435 36 452 q 82 492 82 525 q 82 552 62 552 q 55 552 50 547 q 64 533 64 529 q 64 514 52 514 q 43 514 36 522 q 30 529 30 536 q 30 562 56 562 q 73 562 83 550 q 93 538 93 522 q 93 517 82 484 q 81 475 103 453 q 122 434 127 431 q 78 397 78 380 q 78 369 98 344 q 119 320 127 320 q 99 305 76 275 z"},"^":{"x_min":0,"x_max":307,"ha":307,"o":"m 0 693 l -2 699 l 148 812 l 305 697 l 302 691 l 150 741 z"},"0":{"x_min":0,"x_max":426,"ha":426,"o":"m 387 362 q 387 183 245 68 q 218 46 181 -9 l 175 -8 q 117 63 13 91 q 15 95 29 100 q 43 106 46 111 q 55 123 55 156 l 55 387 q 55 423 49 436 q 41 460 13 467 l 16 474 q 72 487 125 525 q 149 542 215 605 q 219 601 245 591 q 387 537 387 362 z m 303 286 q 303 390 273 454 q 260 482 228 504 q 195 526 165 526 q 135 526 136 482 q 137 451 137 228 q 137 162 138 154 q 145 115 178 98 q 198 88 217 88 q 229 88 246 99 q 262 110 268 121 q 282 148 293 201 q 303 251 303 286 z"},"F":{"x_min":0,"x_max":661,"ha":661,"o":"m 654 621 q 628 598 581 548 l 600 548 q 618 548 632 528 q 646 508 645 490 q 644 475 629 459 q 614 443 600 443 q 584 443 572 454 q 559 466 559 482 q 559 511 583 511 q 600 511 600 497 q 600 482 586 482 q 583 482 575 487 q 570 485 570 480 q 570 456 599 456 q 610 456 622 468 q 634 479 634 490 q 634 535 588 535 q 568 535 541 510 q 514 486 514 467 q 514 466 511 458 q 508 451 509 449 q 492 444 470 436 q 461 431 440 413 l 435 420 l 646 629 z m 598 250 q 582 234 578 215 q 574 196 570 177 q 559 188 542 188 q 537 188 514 183 q 502 181 486 177 q 488 177 540 203 q 556 213 562 222 q 574 239 590 254 z m 655 678 l 381 394 l 504 394 q 523 394 529 410 q 530 416 532 426 q 534 437 535 442 l 542 442 l 542 278 l 534 278 q 532 308 522 317 q 512 326 483 326 q 469 326 441 325 q 413 324 399 324 l 399 105 q 404 125 453 180 q 497 229 497 259 q 497 276 484 286 q 470 296 452 296 q 439 296 430 285 q 420 274 420 261 q 420 240 439 237 l 450 241 q 441 249 441 254 q 441 267 456 267 q 473 267 473 252 q 473 243 462 236 q 451 229 439 229 q 410 229 410 261 q 410 306 455 306 q 479 306 494 292 q 509 279 509 258 q 509 211 445 154 q 482 168 508 168 q 541 168 564 146 q 588 124 588 91 q 588 12 522 12 q 460 12 460 69 q 460 89 475 104 q 490 119 510 119 q 548 119 548 84 q 548 55 525 55 q 507 55 507 70 q 507 85 520 85 q 527 85 536 81 q 538 81 538 83 q 538 109 511 109 q 470 109 470 69 q 470 21 522 21 q 547 21 562 40 q 578 60 578 88 q 578 118 556 138 q 533 158 502 158 q 465 158 435 132 q 405 107 398 71 q 397 65 397 42 l 398 -96 l 385 -96 l 385 324 l 370 324 l 370 -96 l 355 -96 l 355 324 l 310 324 l 310 76 q 310 48 345 42 l 345 34 q 341 33 326 23 q 290 0 251 -46 q 217 -86 184 -126 q 146 -170 96 -170 q 67 -170 39 -150 q 31 -158 20 -167 l 14 -159 l 139 -31 l 146 -37 q 126 -51 126 -70 q 126 -106 159 -106 q 179 -106 196 -87 q 213 -68 213 -47 l 214 455 q 214 543 180 543 q 167 543 140 538 q 114 534 101 534 q 63 534 36 556 q 9 578 6 614 q 4 642 23 661 q 42 680 70 680 q 89 680 108 663 q 126 646 126 628 q 126 586 87 586 q 55 586 55 615 q 55 625 63 634 q 71 643 81 643 q 83 643 92 639 q 101 635 102 635 q 103 635 103 636 q 103 648 92 656 q 81 665 68 665 q 48 665 34 650 q 20 634 20 613 q 20 585 48 566 q 72 549 102 549 q 155 549 214 596 q 229 608 303 685 l 314 683 l 308 670 l 308 562 q 351 599 435 687 l 438 688 q 438 649 549 649 q 572 649 600 658 q 632 667 646 681 z m 525 566 q 500 557 467 557 q 448 557 399 572 l 399 436 z m 387 429 l 387 574 q 387 578 370 583 l 370 407 q 375 408 381 416 q 387 424 387 429 z m 357 585 q 335 570 310 547 l 310 342 l 357 394 z m 125 98 q 125 44 161 44 q 191 44 191 68 q 191 80 185 84 q 181 65 164 65 q 151 65 151 80 q 151 102 178 102 q 187 102 194 92 q 202 81 202 69 q 202 33 158 32 q 112 30 112 94 q 112 126 139 172 q 114 212 73 230 q 139 262 139 297 q 139 326 73 368 q 163 427 163 469 q 163 498 138 499 q 125 503 123 491 q 147 486 147 472 q 147 450 129 453 q 106 457 106 485 q 106 510 139 510 q 154 510 164 498 q 175 485 175 467 q 175 453 160 424 q 160 410 185 387 q 201 373 211 364 q 150 306 150 296 q 150 283 179 256 q 203 234 213 230 q 183 219 154 175 q 125 131 125 98 z"},"`":{"x_min":0,"x_max":313,"ha":313,"o":"m 91 576 q 97 576 112 568 l 235 501 l 234 495 l 94 521 q 69 521 69 544 q 69 553 76 564 q 83 576 91 576 z"},"k":{"x_min":0,"x_max":432,"ha":432,"o":"m 388 74 q 354 49 297 -13 q 259 41 207 67 q 218 70 241 85 q 247 92 246 138 q 245 174 244 180 q 240 195 220 212 q 200 229 187 229 q 178 229 134 200 q 135 141 134 117 q 132 87 170 67 q 105 27 89 -10 q 67 26 5 64 q 48 80 48 118 l 48 390 q 48 404 47 445 q 46 497 46 528 q 46 563 5 581 l 3 581 q 2 581 1 582 q 3 584 6 586 q 17 587 48 597 q 97 626 147 656 q 205 686 256 686 q 292 686 321 664 q 353 639 353 604 q 353 572 329 548 q 305 523 273 525 q 241 527 187 548 q 192 548 174 540 q 169 543 169 546 q 169 552 242 628 q 241 624 248 622 q 242 604 242 593 q 242 568 287 567 q 335 565 336 606 q 337 636 303 655 q 278 669 253 670 q 200 672 167 644 q 134 615 134 563 l 134 376 q 154 385 200 422 q 253 465 269 475 q 270 474 275 465 l 278 460 q 285 448 292 440 q 313 418 333 396 q 360 371 382 365 q 382 362 381 362 q 349 346 263 285 q 282 260 313 244 q 323 240 371 221 q 371 219 368 214 q 352 210 347 208 q 321 197 325 130 q 326 119 329 85 q 335 60 354 60 q 356 60 368 70 q 381 79 382 80 z m 280 322 q 281 340 250 366 q 219 393 201 393 q 183 393 155 373 q 153 371 134 359 l 134 219 l 228 276 q 279 299 280 322 z"},"u":{"x_min":0,"x_max":428,"ha":428,"o":"m -6 392 l 95 477 q 129 435 183 402 q 159 395 154 391 q 140 379 140 350 l 140 115 q 140 71 202 71 q 267 71 267 116 l 267 355 q 267 389 229 400 l 229 404 q 263 423 265 424 q 283 436 294 454 l 309 478 q 312 477 320 463 q 340 430 399 393 q 391 395 377 394 q 350 393 350 342 l 350 97 q 350 67 371 67 q 378 67 390 76 q 402 86 402 86 q 404 84 408 75 q 391 62 348 26 q 334 13 308 -15 q 303 -6 293 10 q 254 60 203 60 q 125 60 100 -14 q 93 10 66 33 q 39 56 13 63 q 12 70 41 77 q 55 83 59 119 l 59 356 q 59 403 31 403 q 26 401 -3 385 q -4 386 -6 392 z"},"]":{"x_min":0,"x_max":206,"ha":206,"o":"m 78 -51 l 8 -52 l 8 -103 l 149 -103 l 149 777 l 8 777 l 8 728 l 72 727 q 80 724 76 724 z"},"U":{"x_min":0,"x_max":682,"ha":682,"o":"m 682 88 q 665 68 624 32 q 583 -4 565 -25 q 494 64 470 64 q 454 64 400 25 l 329 -26 q 314 4 260 33 q 207 62 172 62 q 151 62 134 51 q 114 39 114 19 q 114 7 124 -4 q 134 -14 146 -14 q 174 -14 175 4 l 172 7 l 160 4 l 138 22 q 140 42 161 42 q 191 42 191 7 q 191 -7 177 -17 q 163 -27 147 -27 q 129 -27 114 -12 q 98 3 98 22 q 98 47 138 72 q 195 108 213 186 q 226 241 220 338 q 210 484 210 488 q 210 601 125 601 q 107 601 90 586 q 72 572 72 555 q 72 503 123 503 q 133 503 138 504 l 37 428 l 31 436 l 40 452 q 7 475 7 513 q 7 550 91 609 q 131 636 210 690 q 223 668 252 650 q 280 631 285 622 q 300 596 300 540 l 300 286 q 292 220 336 217 l 230 134 q 311 117 348 95 l 350 104 q 350 148 274 155 l 282 162 q 306 162 326 151 q 342 139 350 134 l 349 660 l 363 661 l 363 90 l 382 84 l 382 660 l 395 660 l 395 127 q 427 147 457 190 q 487 232 487 266 q 487 320 446 320 q 431 320 421 308 q 411 297 413 283 q 414 270 422 258 q 431 247 439 247 q 446 247 456 254 q 466 261 467 268 l 461 273 l 453 267 l 438 281 l 453 295 q 460 294 467 286 q 474 278 474 270 q 474 257 464 246 q 454 236 441 236 q 426 236 414 250 q 402 265 402 281 q 402 302 414 316 q 427 330 445 330 q 457 330 467 323 q 467 323 434 374 q 402 426 402 471 q 402 492 416 508 q 429 524 449 524 q 464 524 476 512 q 487 499 487 484 q 487 470 461 459 l 441 477 l 452 491 q 467 489 469 472 l 474 486 q 460 512 445 512 q 415 512 415 462 q 415 434 456 369 q 498 304 498 266 q 498 221 468 176 q 437 132 395 107 l 395 79 q 441 68 433 68 q 464 68 486 95 q 507 122 507 154 l 507 528 q 507 558 459 567 q 490 583 533 625 q 583 673 604 687 l 604 136 q 604 83 628 79 q 654 75 674 95 z m 206 396 q 144 354 144 324 q 144 301 207 260 q 131 202 126 160 q 122 121 146 121 q 176 121 176 136 l 175 144 q 158 140 158 140 q 144 140 144 152 q 144 170 162 170 q 171 170 180 160 q 189 151 189 142 q 189 110 146 110 q 118 110 119 151 q 120 177 130 201 q 130 213 104 236 q 77 259 77 261 q 137 291 137 323 q 137 346 113 366 l 74 399 q 107 410 134 450 q 162 491 162 526 q 162 567 130 567 q 118 567 113 553 l 120 554 q 128 554 136 543 q 136 525 120 525 q 99 525 99 547 q 99 559 109 568 q 119 577 131 577 q 172 577 172 523 q 172 505 159 479 l 147 455 q 147 440 206 396 z"},"o":{"x_min":0,"x_max":406,"ha":406,"o":"m 383 374 q 379 373 370 370 q 360 366 355 364 q 335 353 332 332 l 332 112 q 332 84 369 65 l 366 55 q 332 73 307 73 q 213 73 170 -9 q 143 9 89 44 q 53 67 4 81 q 51 102 51 132 l 51 281 q 51 330 52 323 q 50 349 38 352 q 33 355 6 366 q 5 367 5 371 l 54 376 q 88 379 136 410 q 183 441 204 470 l 208 470 q 234 452 267 429 q 289 415 342 389 q 359 386 384 380 z m 253 345 q 247 350 211 373 q 175 396 167 398 q 135 401 135 374 l 134 108 q 211 64 215 64 q 219 64 253 82 z"},"N":{"x_min":0,"x_max":679,"ha":679,"o":"m 616 288 q 601 259 600 232 l 606 209 l 589 209 q 571 209 556 192 l 553 188 l 558 187 q 608 187 608 141 q 608 126 596 114 q 585 101 570 101 q 538 101 538 127 q 538 145 555 145 q 568 145 568 132 q 568 124 554 116 q 554 110 564 110 q 599 110 599 136 q 599 152 588 164 q 577 177 562 177 q 544 177 518 153 l 479 117 q 474 117 472 120 q 495 145 542 195 q 589 245 604 274 l 613 291 z m 625 436 q 625 386 598 308 q 580 275 560 249 q 514 190 439 119 l 439 115 q 497 95 555 60 q 563 62 592 86 l 598 83 l 484 -23 l 427 26 q 393 52 363 65 q 362 58 363 -21 l 347 -21 l 347 83 q 341 79 334 69 q 334 45 333 24 q 332 -4 333 -21 l 318 -21 l 319 63 q 299 43 264 0 q 264 0 258 -14 q 253 -27 248 -27 l 240 -14 q 224 19 179 42 q 138 64 99 64 q 83 64 69 52 q 55 39 55 24 q 55 1 80 -6 l 82 -4 q 73 4 73 16 q 73 42 99 42 q 110 42 118 32 q 127 23 127 11 q 127 -3 114 -12 q 102 -21 86 -21 q 43 -21 42 25 q 45 66 104 106 q 164 147 170 176 q 177 205 175 294 l 171 294 q 139 282 113 255 q 84 224 84 193 q 84 151 119 151 q 136 151 141 171 l 142 173 l 142 177 l 138 179 q 132 176 129 176 q 111 176 111 195 q 111 214 130 214 q 157 214 157 178 q 157 161 144 149 q 132 137 115 138 q 68 140 68 190 q 68 226 91 252 q 79 264 57 283 q 55 285 27 303 q 96 347 96 366 q 96 398 26 427 q 26 429 48 446 q 71 462 76 463 q 110 497 110 521 q 110 543 89 541 l 83 538 l 83 536 q 92 526 92 522 q 92 508 80 508 q 63 508 63 524 q 63 549 94 549 q 121 549 121 515 q 121 504 111 487 q 113 473 143 452 q 173 430 173 428 q 173 424 156 414 q 140 404 137 400 q 131 399 120 386 q 108 372 108 365 q 108 337 169 306 l 175 305 q 176 326 175 367 q 173 415 174 429 q 177 503 166 536 q 154 570 127 565 q 107 561 85 561 q -4 561 -4 634 q -4 696 62 696 q 81 696 99 678 q 117 660 117 641 q 117 634 106 609 q 85 599 73 599 q 60 599 50 608 q 40 618 40 631 q 40 660 69 660 q 87 660 97 633 l 99 634 q 102 643 102 646 q 102 659 87 671 q 72 683 58 683 q 14 683 11 637 q 9 609 29 592 q 49 575 80 575 q 134 575 179 607 q 193 620 255 676 q 261 682 274 698 l 274 546 q 282 551 373 627 q 447 689 460 692 l 466 684 l 466 682 q 466 676 507 643 q 625 547 625 436 z m 529 359 q 529 411 514 453 q 484 539 379 568 l 362 570 l 362 117 l 367 121 q 434 175 468 241 q 475 258 488 300 q 489 337 473 364 q 450 387 442 387 q 415 387 404 378 q 393 369 386 343 q 391 296 422 296 q 454 296 454 326 q 454 340 443 349 q 441 329 427 329 q 412 329 412 345 q 412 363 431 363 q 463 363 463 324 q 463 309 450 297 q 436 285 421 285 q 400 285 386 300 q 373 316 374 340 q 376 395 437 399 q 422 409 406 432 q 390 456 390 477 q 390 525 439 525 q 449 525 459 514 q 469 503 469 493 q 469 467 445 467 l 439 467 q 431 473 431 480 q 431 496 453 492 l 453 497 q 442 515 427 511 q 404 505 404 485 q 404 453 452 402 q 501 352 501 320 q 501 261 457 201 q 444 183 370 105 q 369 104 364 100 q 365 87 364 74 l 370 81 q 379 88 419 121 q 529 213 529 359 z m 350 570 l 333 568 l 334 91 l 350 107 z m 319 564 l 273 527 q 274 368 272 287 q 271 269 274 264 q 276 260 293 253 l 302 249 q 293 238 230 192 q 173 150 169 140 q 174 138 196 132 q 201 131 261 103 q 314 79 319 80 l 319 108 l 211 156 l 222 162 l 319 122 z"},"+":{"x_min":0,"x_max":478,"ha":478,"o":"m 187 486 l 233 486 l 233 309 l 407 309 l 407 263 l 233 263 l 233 86 l 187 86 l 187 263 l 13 263 l 13 309 l 187 309 z"},"G":{"x_min":0,"x_max":616,"ha":616,"o":"m 582 561 q 580 556 565 547 q 545 535 540 530 q 545 529 556 521 q 568 508 568 495 q 568 485 560 474 q 552 462 543 462 l 536 462 q 530 462 523 469 q 516 476 516 480 q 516 484 527 493 q 535 488 536 483 l 536 474 q 538 472 542 472 q 560 472 560 495 q 560 521 534 521 q 529 521 480 495 q 477 499 478 500 q 515 521 573 564 z m 582 635 q 582 610 571 598 q 550 575 515 552 q 501 544 473 529 q 440 512 440 505 q 440 498 450 493 q 468 484 511 459 q 516 454 529 443 q 552 423 565 380 q 576 344 576 313 q 576 222 444 125 q 301 19 302 -7 q 301 -7 296 -18 q 291 -12 273 3 l 180 36 q 116 59 70 97 q 37 70 37 52 q 37 37 50 26 q 63 14 78 14 q 100 14 100 37 q 100 40 90 50 l 81 49 q 86 44 86 42 q 86 30 73 30 q 61 30 61 42 q 61 61 82 61 q 108 61 108 37 q 108 6 74 6 q 56 6 44 18 q 31 31 31 48 q 31 69 46 88 l 61 107 q 61 110 52 119 q 42 133 40 134 q 29 150 17 173 q -4 214 -4 279 q -4 389 65 458 q 84 481 135 526 q 149 535 185 557 q 184 570 166 570 q 156 570 135 564 q 114 558 104 558 q 76 558 56 573 q 33 590 33 617 q 33 637 47 655 q 61 673 81 673 q 100 673 113 661 q 126 649 126 633 q 126 602 101 602 q 91 602 80 610 q 69 619 69 628 q 69 643 98 654 q 93 659 81 659 q 43 659 43 618 q 43 568 103 568 q 135 568 194 612 q 247 652 269 685 l 278 685 l 278 608 l 282 604 q 335 627 389 685 q 401 663 450 628 q 499 594 523 594 q 542 594 557 606 q 572 619 572 637 q 572 649 562 660 q 552 671 540 671 q 535 671 530 666 q 546 653 546 645 q 546 622 520 622 q 510 622 502 630 q 493 639 493 648 q 493 663 507 673 q 521 683 536 683 q 582 683 582 635 z m 570 195 q 566 191 542 161 q 539 154 539 126 q 525 134 517 134 q 494 134 469 106 q 477 106 494 102 q 507 99 518 85 q 528 71 528 59 q 528 40 516 27 q 505 14 489 14 q 453 14 453 43 q 453 52 460 60 q 468 67 475 67 q 491 67 491 55 q 491 40 479 40 q 479 41 466 50 q 461 48 461 42 q 461 28 485 22 q 518 22 518 58 q 518 97 473 97 q 447 97 420 61 q 418 57 418 28 q 411 32 397 32 q 376 32 336 -4 l 331 1 l 565 199 q 568 198 570 195 z m 438 531 q 438 542 416 559 q 393 576 380 578 l 380 489 l 387 489 q 438 518 438 531 z m 365 481 l 365 585 q 358 592 349 592 l 349 471 q 362 475 365 481 z m 335 483 l 335 598 q 320 602 312 602 q 289 602 279 589 l 279 430 q 301 440 326 453 q 335 461 335 483 z m 497 258 q 497 353 424 402 q 423 402 418 406 q 414 411 412 411 q 411 411 400 418 q 388 424 386 424 l 380 424 l 380 270 q 392 271 416 298 q 440 324 440 340 q 440 345 435 353 q 430 361 425 361 q 424 361 421 352 q 418 343 412 343 q 400 343 400 354 q 400 371 423 371 q 434 371 442 362 q 449 352 449 342 q 449 312 409 278 q 429 280 447 265 q 465 250 465 232 q 465 229 462 214 q 460 207 450 196 q 441 186 437 186 l 424 186 q 413 186 402 196 q 392 205 392 219 q 392 235 410 235 q 426 235 426 223 q 426 213 415 213 q 412 213 405 225 q 402 224 398 220 l 398 212 q 398 206 407 200 q 416 194 422 194 q 453 194 453 229 q 453 270 412 270 q 377 270 378 230 l 380 124 q 380 113 389 113 q 409 113 441 138 q 473 162 477 181 q 483 191 488 201 q 497 234 497 258 z m 365 114 l 365 429 q 360 434 355 434 q 352 434 347 429 l 349 325 l 349 244 q 349 147 350 120 q 350 119 352 116 q 353 113 354 111 q 353 111 365 114 z m 337 244 l 337 434 l 320 434 q 319 434 280 417 l 282 299 q 282 285 295 284 q 308 284 309 277 l 152 165 q 244 111 326 111 q 332 111 336 114 l 336 227 q 325 221 295 198 q 295 186 285 170 q 273 176 267 176 q 255 176 237 165 q 219 154 219 154 q 215 154 215 158 q 227 165 278 198 q 316 223 337 244 z m 195 278 l 188 541 q 160 526 130 510 q 97 489 83 455 q 79 447 71 425 q 69 419 64 405 q 57 367 57 346 q 57 299 82 247 q 106 195 143 170 q 178 191 189 221 q 196 240 195 278 z m 185 372 q 147 340 139 331 q 114 304 114 277 q 114 241 143 241 q 153 241 163 253 l 161 261 q 157 257 151 257 q 145 257 138 264 l 138 277 q 149 288 157 288 q 173 288 173 265 q 173 235 144 235 q 129 235 120 246 q 110 258 110 272 q 110 293 124 326 q 124 332 106 350 q 88 368 84 369 q 85 369 86 378 q 119 397 136 421 q 142 433 142 449 q 142 468 125 468 q 118 468 114 461 q 121 459 128 453 l 128 447 q 127 438 117 438 q 110 438 104 456 q 104 464 115 471 q 123 476 128 476 q 150 476 150 444 q 150 443 146 432 q 142 420 142 418 q 142 412 162 392 q 169 384 185 372 z"},"q":{"x_min":0,"x_max":404,"ha":404,"o":"m 378 390 q 377 389 353 374 q 336 363 336 351 l 336 -24 q 341 -74 358 -87 q 366 -91 385 -100 q 385 -103 382 -107 q 369 -108 337 -121 q 322 -135 273 -164 q 210 -202 185 -199 q 184 -199 184 -195 q 185 -191 183 -190 q 229 -184 247 -145 q 250 -138 249 -122 q 247 -98 248 -94 l 248 95 l 148 2 q 78 50 75 52 q 33 78 5 81 q 5 88 7 86 q 11 88 29 93 q 33 93 40 103 q 48 113 48 121 l 48 320 q 48 343 38 354 q 27 366 -1 376 l 80 400 q 151 429 188 489 q 195 496 198 496 q 200 496 223 478 q 248 457 252 455 l 311 418 q 346 396 378 390 z m 249 360 q 175 409 160 413 q 151 415 142 406 q 132 398 132 391 l 132 116 q 136 111 198 73 l 248 117 q 251 286 249 360 z"},"d":{"x_min":0,"x_max":419,"ha":419,"o":"m 380 363 q 343 344 340 339 q 336 331 336 272 q 336 195 337 137 q 347 105 372 59 q 333 71 321 71 q 283 71 242 44 q 202 16 185 -19 l 180 -20 q 146 12 103 35 q 75 50 20 71 q 47 75 52 98 l 52 303 q 50 319 48 326 q 41 349 20 357 q 34 357 59 362 q 74 365 110 380 q 147 396 158 404 q 114 427 5 523 q 56 515 64 517 l 66 520 q 46 545 46 571 q 46 619 96 649 q 139 674 190 674 q 237 674 275 655 q 323 631 323 589 q 323 557 293 536 q 263 515 225 519 q 173 525 147 557 q 141 555 135 555 l 129 562 q 160 583 205 624 l 210 616 q 203 608 203 600 q 203 585 225 571 q 247 557 263 557 q 303 557 303 591 q 303 620 266 640 q 235 658 203 659 q 159 661 125 646 q 82 628 82 588 q 82 543 207 460 q 299 399 380 363 z m 257 323 q 257 324 256 332 q 254 340 254 342 q 227 360 174 391 q 146 381 135 370 l 135 116 q 188 91 231 50 q 235 50 257 66 z"},"1":{"x_min":0,"x_max":293,"ha":293,"o":"m 245 11 q 200 -2 147 -80 q 90 -163 51 -186 l 41 -183 l 46 -173 q 73 -156 91 -122 q 109 -87 109 -51 l 111 450 q 111 487 89 487 q 83 487 64 478 l 38 466 l 34 482 q 39 487 80 506 q 96 514 148 553 q 152 557 176 585 q 183 594 197 610 q 195 604 193 584 q 192 572 193 559 q 194 549 194 545 l 194 62 q 208 29 245 20 z"},"5":{"x_min":0,"x_max":463,"ha":463,"o":"m 412 214 q 412 126 351 47 q 286 -37 201 -37 q 148 -37 97 -1 q 77 14 65 31 q 57 43 57 47 q 52 47 33 36 l 28 41 l 31 49 q 50 64 76 92 q 93 120 128 174 q 160 221 207 221 q 211 221 232 211 q 253 201 259 201 q 263 201 271 206 q 279 210 281 210 l 286 209 q 277 199 198 107 l 191 112 q 202 136 202 131 q 202 145 189 154 q 176 163 160 163 q 145 163 134 150 q 124 138 124 122 q 124 110 136 94 q 147 77 159 70 q 198 47 249 47 q 304 47 342 80 q 379 112 379 165 q 379 240 308 286 q 246 326 167 326 q 101 326 45 269 l 37 272 l 37 279 q 37 287 106 432 q 120 461 188 602 q 203 595 218 586 l 254 586 q 313 586 330 587 q 356 599 374 599 q 351 549 314 487 q 308 503 304 506 q 299 510 285 510 l 163 510 q 137 440 121 409 q 178 419 194 419 q 286 419 349 362 q 412 305 412 214 z"}}}
